<mxfile host="app.diagrams.net" modified="2024-02-01T17:04:33.875Z" agent="Mozilla/5.0 (Windows NT 10.0; Win64; x64) AppleWebKit/537.36 (KHTML, like Gecko) Chrome/121.0.0.0 Safari/537.36" etag="DhQPdAcgbQzUCZrBUbBe" version="23.1.0" type="device">
  <diagram name="Page-1" id="sHHcCxZ8P_L0G3IQPjpc">
    <mxGraphModel dx="913" dy="491" grid="1" gridSize="10" guides="1" tooltips="1" connect="1" arrows="1" fold="1" page="1" pageScale="1" pageWidth="1920" pageHeight="1200" background="#fffafa" math="0" shadow="1">
      <root>
        <mxCell id="0" />
        <mxCell id="1" parent="0" />
        <mxCell id="4jwOPmnAcVUzZcuJE3_t-252" value="&lt;b&gt;assignment_submits&lt;/b&gt;" style="rounded=1;arcSize=10;whiteSpace=wrap;html=1;align=center;fontFamily=Helvetica;fontSize=12;fillColor=#d5e8d4;strokeColor=#82b366;" parent="1" vertex="1">
          <mxGeometry x="1655.61" y="357.34" width="150" height="40" as="geometry" />
        </mxCell>
        <mxCell id="4jwOPmnAcVUzZcuJE3_t-255" value="" style="endArrow=none;html=1;rounded=0;" parent="1" source="4jwOPmnAcVUzZcuJE3_t-254" target="4jwOPmnAcVUzZcuJE3_t-252" edge="1">
          <mxGeometry relative="1" as="geometry">
            <mxPoint x="1675.812859684074" y="248.30824102238273" as="sourcePoint" />
            <mxPoint x="1755.6138102223724" y="340.3274471758601" as="targetPoint" />
          </mxGeometry>
        </mxCell>
        <mxCell id="4jwOPmnAcVUzZcuJE3_t-28" value="course" style="rounded=1;whiteSpace=wrap;html=1;arcSize=10;fontStyle=1;container=0;fillColor=#d5e8d4;strokeColor=#82b366;" parent="1" vertex="1">
          <mxGeometry x="638.3737334742925" y="563.9956622371085" width="108.75851292407243" height="42.8541945113134" as="geometry" />
        </mxCell>
        <mxCell id="4jwOPmnAcVUzZcuJE3_t-46" value="id(pk)" style="ellipse;whiteSpace=wrap;html=1;align=center;container=0;" parent="1" vertex="1">
          <mxGeometry x="564.9715602737026" y="683.4134722034024" width="77.43324544755966" height="28.926581295136543" as="geometry" />
        </mxCell>
        <mxCell id="4jwOPmnAcVUzZcuJE3_t-47" value="" style="endArrow=none;html=1;rounded=0;" parent="1" source="4jwOPmnAcVUzZcuJE3_t-46" target="4jwOPmnAcVUzZcuJE3_t-28" edge="1">
          <mxGeometry width="50" height="50" relative="1" as="geometry">
            <mxPoint x="643.4843276738314" y="674.4202079441353" as="sourcePoint" />
            <mxPoint x="696.2797222971675" y="620.8524648049936" as="targetPoint" />
          </mxGeometry>
        </mxCell>
        <mxCell id="4jwOPmnAcVUzZcuJE3_t-48" value="name" style="ellipse;whiteSpace=wrap;html=1;align=center;container=0;" parent="1" vertex="1">
          <mxGeometry x="525.2318345191177" y="591.6419488444733" width="77.43324544755966" height="28.926581295136543" as="geometry" />
        </mxCell>
        <mxCell id="4jwOPmnAcVUzZcuJE3_t-49" value="" style="endArrow=none;html=1;rounded=0;" parent="1" source="4jwOPmnAcVUzZcuJE3_t-48" target="4jwOPmnAcVUzZcuJE3_t-28" edge="1">
          <mxGeometry width="50" height="50" relative="1" as="geometry">
            <mxPoint x="622.366169824497" y="685.1337565719638" as="sourcePoint" />
            <mxPoint x="675.1615644478331" y="631.5660134328219" as="targetPoint" />
          </mxGeometry>
        </mxCell>
        <mxCell id="4jwOPmnAcVUzZcuJE3_t-50" value="instructor" style="ellipse;whiteSpace=wrap;html=1;align=center;container=0;" parent="1" vertex="1">
          <mxGeometry x="527.5104880267329" y="622.5698850023928" width="77.43324544755966" height="28.926581295136543" as="geometry" />
        </mxCell>
        <mxCell id="4jwOPmnAcVUzZcuJE3_t-51" value="" style="endArrow=none;html=1;rounded=0;" parent="1" source="4jwOPmnAcVUzZcuJE3_t-50" target="4jwOPmnAcVUzZcuJE3_t-28" edge="1">
          <mxGeometry width="50" height="50" relative="1" as="geometry">
            <mxPoint x="527.3344595024919" y="749.4150483389338" as="sourcePoint" />
            <mxPoint x="580.129854125828" y="695.8473051997921" as="targetPoint" />
          </mxGeometry>
        </mxCell>
        <mxCell id="4jwOPmnAcVUzZcuJE3_t-52" value="detail" style="ellipse;whiteSpace=wrap;html=1;align=center;container=0;" parent="1" vertex="1">
          <mxGeometry x="537.2499308821058" y="654.4868909082659" width="77.43324544755966" height="28.926581295136543" as="geometry" />
        </mxCell>
        <mxCell id="4jwOPmnAcVUzZcuJE3_t-53" value="" style="endArrow=none;html=1;rounded=0;" parent="1" source="4jwOPmnAcVUzZcuJE3_t-52" target="4jwOPmnAcVUzZcuJE3_t-28" edge="1">
          <mxGeometry width="50" height="50" relative="1" as="geometry">
            <mxPoint x="738.5160379958364" y="674.4202079441353" as="sourcePoint" />
            <mxPoint x="791.3114326191726" y="620.8524648049936" as="targetPoint" />
          </mxGeometry>
        </mxCell>
        <mxCell id="4jwOPmnAcVUzZcuJE3_t-54" value="courseImg" style="ellipse;whiteSpace=wrap;html=1;align=center;container=0;" parent="1" vertex="1">
          <mxGeometry x="525.9182029492509" y="557.9226578237714" width="77.43324544755966" height="28.926581295136543" as="geometry" />
        </mxCell>
        <mxCell id="4jwOPmnAcVUzZcuJE3_t-55" value="" style="endArrow=none;html=1;rounded=0;" parent="1" source="4jwOPmnAcVUzZcuJE3_t-28" target="4jwOPmnAcVUzZcuJE3_t-54" edge="1">
          <mxGeometry width="50" height="50" relative="1" as="geometry">
            <mxPoint x="485.098143803823" y="695.8473051997921" as="sourcePoint" />
            <mxPoint x="608" y="604.75" as="targetPoint" />
          </mxGeometry>
        </mxCell>
        <mxCell id="4jwOPmnAcVUzZcuJE3_t-56" value="duration" style="ellipse;whiteSpace=wrap;html=1;align=center;container=0;" parent="1" vertex="1">
          <mxGeometry x="525.2282029492509" y="522.7499198442346" width="77.43324544755966" height="28.926581295136543" as="geometry" />
        </mxCell>
        <mxCell id="4jwOPmnAcVUzZcuJE3_t-57" value="" style="endArrow=none;html=1;rounded=0;" parent="1" source="4jwOPmnAcVUzZcuJE3_t-28" target="4jwOPmnAcVUzZcuJE3_t-56" edge="1">
          <mxGeometry width="50" height="50" relative="1" as="geometry">
            <mxPoint x="622.366169824497" y="599.4253675493369" as="sourcePoint" />
            <mxPoint x="607.71195338462" y="565.5333574799213" as="targetPoint" />
          </mxGeometry>
        </mxCell>
        <mxCell id="4jwOPmnAcVUzZcuJE3_t-58" value="start" style="ellipse;whiteSpace=wrap;html=1;align=center;container=0;" parent="1" vertex="1">
          <mxGeometry x="554.6518345191176" y="493.4342688011444" width="77.43324544755966" height="28.926581295136543" as="geometry" />
        </mxCell>
        <mxCell id="4jwOPmnAcVUzZcuJE3_t-59" value="" style="endArrow=none;html=1;rounded=0;exitX=0.25;exitY=0;exitDx=0;exitDy=0;" parent="1" source="4jwOPmnAcVUzZcuJE3_t-28" target="4jwOPmnAcVUzZcuJE3_t-58" edge="1">
          <mxGeometry width="50" height="50" relative="1" as="geometry">
            <mxPoint x="643.4843276738314" y="567.2847216658519" as="sourcePoint" />
            <mxPoint x="696.2797222971675" y="513.7169785267101" as="targetPoint" />
          </mxGeometry>
        </mxCell>
        <mxCell id="4jwOPmnAcVUzZcuJE3_t-60" value="end" style="ellipse;whiteSpace=wrap;html=1;align=center;container=0;" parent="1" vertex="1">
          <mxGeometry x="570.1577775321987" y="462.50497778044223" width="77.43324544755966" height="28.926581295136543" as="geometry" />
        </mxCell>
        <mxCell id="4jwOPmnAcVUzZcuJE3_t-61" value="" style="endArrow=none;html=1;rounded=0;entryX=0.739;entryY=0.866;entryDx=0;entryDy=0;entryPerimeter=0;" parent="1" source="4jwOPmnAcVUzZcuJE3_t-28" target="4jwOPmnAcVUzZcuJE3_t-60" edge="1">
          <mxGeometry width="50" height="50" relative="1" as="geometry">
            <mxPoint x="675.1615644478331" y="567.2847216658519" as="sourcePoint" />
            <mxPoint x="727.9569590711692" y="513.7169785267101" as="targetPoint" />
          </mxGeometry>
        </mxCell>
        <mxCell id="4jwOPmnAcVUzZcuJE3_t-62" value="enrollmentEnd" style="ellipse;whiteSpace=wrap;html=1;align=center;container=0;" parent="1" vertex="1">
          <mxGeometry x="733.9233538670345" y="694.6034722034025" width="91.15652835665216" height="28.926581295136543" as="geometry" />
        </mxCell>
        <mxCell id="4jwOPmnAcVUzZcuJE3_t-63" value="" style="endArrow=none;html=1;rounded=0;" parent="1" source="4jwOPmnAcVUzZcuJE3_t-62" target="4jwOPmnAcVUzZcuJE3_t-28" edge="1">
          <mxGeometry width="50" height="50" relative="1" as="geometry">
            <mxPoint x="727.9569590711692" y="695.8473051997921" as="sourcePoint" />
            <mxPoint x="780.7523536945055" y="642.2795620606504" as="targetPoint" />
          </mxGeometry>
        </mxCell>
        <mxCell id="4jwOPmnAcVUzZcuJE3_t-64" value="prerequisite" style="ellipse;whiteSpace=wrap;html=1;align=center;container=0;" parent="1" vertex="1">
          <mxGeometry x="769.1387267053899" y="665.6791760230951" width="77.43324544755966" height="28.926581295136543" as="geometry" />
        </mxCell>
        <mxCell id="4jwOPmnAcVUzZcuJE3_t-65" value="" style="endArrow=none;html=1;rounded=0;exitX=0.215;exitY=0.058;exitDx=0;exitDy=0;exitPerimeter=0;" parent="1" source="4jwOPmnAcVUzZcuJE3_t-64" target="4jwOPmnAcVUzZcuJE3_t-28" edge="1">
          <mxGeometry width="50" height="50" relative="1" as="geometry">
            <mxPoint x="749.0751169205037" y="674.4202079441353" as="sourcePoint" />
            <mxPoint x="801.8705115438398" y="620.8524648049936" as="targetPoint" />
          </mxGeometry>
        </mxCell>
        <mxCell id="4jwOPmnAcVUzZcuJE3_t-66" value="createdAt" style="ellipse;whiteSpace=wrap;html=1;align=center;container=0;" parent="1" vertex="1">
          <mxGeometry x="790.0038471843965" y="636.74853013961" width="77.43324544755966" height="28.926581295136543" as="geometry" />
        </mxCell>
        <mxCell id="4jwOPmnAcVUzZcuJE3_t-67" value="" style="endArrow=none;html=1;rounded=0;" parent="1" source="4jwOPmnAcVUzZcuJE3_t-66" target="4jwOPmnAcVUzZcuJE3_t-28" edge="1">
          <mxGeometry width="50" height="50" relative="1" as="geometry">
            <mxPoint x="749.0751169205037" y="674.4202079441353" as="sourcePoint" />
            <mxPoint x="801.8705115438398" y="620.8524648049936" as="targetPoint" />
          </mxGeometry>
        </mxCell>
        <mxCell id="4jwOPmnAcVUzZcuJE3_t-68" value="updatedAt" style="ellipse;whiteSpace=wrap;html=1;align=center;container=0;" parent="1" vertex="1">
          <mxGeometry x="811.3508185689507" y="606.8492391189077" width="77.43324544755966" height="28.926581295136543" as="geometry" />
        </mxCell>
        <mxCell id="4jwOPmnAcVUzZcuJE3_t-69" value="" style="endArrow=none;html=1;rounded=0;" parent="1" source="4jwOPmnAcVUzZcuJE3_t-68" target="4jwOPmnAcVUzZcuJE3_t-28" edge="1">
          <mxGeometry width="50" height="50" relative="1" as="geometry">
            <mxPoint x="759.634195845171" y="631.5660134328219" as="sourcePoint" />
            <mxPoint x="812.4295904685072" y="577.9982702936801" as="targetPoint" />
          </mxGeometry>
        </mxCell>
        <mxCell id="4jwOPmnAcVUzZcuJE3_t-70" value="classDay" style="ellipse;whiteSpace=wrap;html=1;align=center;container=0;" parent="1" vertex="1">
          <mxGeometry x="604.947255508186" y="432.67568675973996" width="77.43324544755966" height="28.926581295136543" as="geometry" />
        </mxCell>
        <mxCell id="4jwOPmnAcVUzZcuJE3_t-71" value="" style="endArrow=none;html=1;rounded=0;" parent="1" source="4jwOPmnAcVUzZcuJE3_t-28" target="4jwOPmnAcVUzZcuJE3_t-70" edge="1">
          <mxGeometry width="50" height="50" relative="1" as="geometry">
            <mxPoint x="727.9569590711692" y="556.5711730380235" as="sourcePoint" />
            <mxPoint x="780.7523536945055" y="503.0034298988818" as="targetPoint" />
          </mxGeometry>
        </mxCell>
        <mxCell id="4jwOPmnAcVUzZcuJE3_t-72" value="classTime" style="ellipse;whiteSpace=wrap;html=1;align=center;container=0;" parent="1" vertex="1">
          <mxGeometry x="712.5663080671211" y="403.7477506018206" width="77.43324544755966" height="28.926581295136543" as="geometry" />
        </mxCell>
        <mxCell id="4jwOPmnAcVUzZcuJE3_t-73" value="" style="endArrow=none;html=1;rounded=0;" parent="1" source="4jwOPmnAcVUzZcuJE3_t-28" target="4jwOPmnAcVUzZcuJE3_t-72" edge="1">
          <mxGeometry width="50" height="50" relative="1" as="geometry">
            <mxPoint x="738.5160379958364" y="567.2847216658519" as="sourcePoint" />
            <mxPoint x="791.3114326191726" y="513.7169785267101" as="targetPoint" />
          </mxGeometry>
        </mxCell>
        <mxCell id="4jwOPmnAcVUzZcuJE3_t-74" value="subject" style="ellipse;whiteSpace=wrap;html=1;align=center;container=0;" parent="1" vertex="1">
          <mxGeometry x="744.5061762384606" y="445.151299229649" width="77.43324544755966" height="28.926581295136543" as="geometry" />
        </mxCell>
        <mxCell id="4jwOPmnAcVUzZcuJE3_t-75" value="" style="endArrow=none;html=1;rounded=0;" parent="1" source="4jwOPmnAcVUzZcuJE3_t-28" target="4jwOPmnAcVUzZcuJE3_t-74" edge="1">
          <mxGeometry width="50" height="50" relative="1" as="geometry">
            <mxPoint x="791.3114326191726" y="599.4253675493369" as="sourcePoint" />
            <mxPoint x="844.1068272425088" y="545.8576244101952" as="targetPoint" />
          </mxGeometry>
        </mxCell>
        <mxCell id="4jwOPmnAcVUzZcuJE3_t-76" value="price" style="ellipse;whiteSpace=wrap;html=1;align=center;container=0;" parent="1" vertex="1">
          <mxGeometry x="763.9997814425953" y="482.3632999759168" width="77.43324544755966" height="28.926581295136543" as="geometry" />
        </mxCell>
        <mxCell id="4jwOPmnAcVUzZcuJE3_t-77" value="discount" style="ellipse;whiteSpace=wrap;html=1;align=center;container=0;" parent="1" vertex="1">
          <mxGeometry x="780.0038471843965" y="514.8198812710534" width="77.43324544755966" height="28.926581295136543" as="geometry" />
        </mxCell>
        <mxCell id="4jwOPmnAcVUzZcuJE3_t-79" value="" style="endArrow=none;html=1;rounded=0;" parent="1" source="4jwOPmnAcVUzZcuJE3_t-28" target="4jwOPmnAcVUzZcuJE3_t-76" edge="1">
          <mxGeometry width="50" height="50" relative="1" as="geometry">
            <mxPoint x="717.3978801465021" y="556.5711730380235" as="sourcePoint" />
            <mxPoint x="770.1932747698382" y="503.0034298988818" as="targetPoint" />
          </mxGeometry>
        </mxCell>
        <mxCell id="4jwOPmnAcVUzZcuJE3_t-80" value="" style="endArrow=none;html=1;rounded=0;" parent="1" source="4jwOPmnAcVUzZcuJE3_t-28" target="4jwOPmnAcVUzZcuJE3_t-77" edge="1">
          <mxGeometry width="50" height="50" relative="1" as="geometry">
            <mxPoint x="717.3978801465021" y="577.9982702936801" as="sourcePoint" />
            <mxPoint x="770.1932747698382" y="524.4305271545384" as="targetPoint" />
          </mxGeometry>
        </mxCell>
        <mxCell id="4jwOPmnAcVUzZcuJE3_t-85" value="&lt;b&gt;registration&lt;/b&gt;" style="rhombus;whiteSpace=wrap;html=1;container=0;fillColor=#ffe6cc;strokeColor=#d79b00;" parent="1" vertex="1">
          <mxGeometry x="234.0253038192684" y="1018.2528033203957" width="87.11240112850463" height="62.06358720100963" as="geometry" />
        </mxCell>
        <mxCell id="4jwOPmnAcVUzZcuJE3_t-87" value="&lt;b&gt;subject&lt;/b&gt;" style="whiteSpace=wrap;html=1;container=0;fillColor=#d5e8d4;strokeColor=#82b366;" parent="1" vertex="1">
          <mxGeometry x="472.24868343868576" y="1028.9556383995964" width="84.4726313973378" height="40.64720349398076" as="geometry" />
        </mxCell>
        <mxCell id="4jwOPmnAcVUzZcuJE3_t-89" value="id(pk)" style="ellipse;whiteSpace=wrap;html=1;align=center;container=0;" parent="1" vertex="1">
          <mxGeometry x="492.7233215950453" y="1125.3918382265076" width="77.43324544755966" height="28.926581295136543" as="geometry" />
        </mxCell>
        <mxCell id="4jwOPmnAcVUzZcuJE3_t-90" value="name" style="ellipse;whiteSpace=wrap;html=1;align=center;container=0;" parent="1" vertex="1">
          <mxGeometry x="352.53688597675847" y="1093.2476437151943" width="77.43324544755966" height="28.926581295136543" as="geometry" />
        </mxCell>
        <mxCell id="4jwOPmnAcVUzZcuJE3_t-91" value="code" style="ellipse;whiteSpace=wrap;html=1;align=center;container=0;" parent="1" vertex="1">
          <mxGeometry x="419.4532888153496" y="1122.1742250103307" width="66.82841051421887" height="25.71251670678804" as="geometry" />
        </mxCell>
        <mxCell id="4jwOPmnAcVUzZcuJE3_t-92" value="class" style="ellipse;whiteSpace=wrap;html=1;align=center;container=0;" parent="1" vertex="1">
          <mxGeometry x="546.1587162183813" y="1096.4617083035428" width="77.43324544755966" height="28.926581295136543" as="geometry" />
        </mxCell>
        <mxCell id="4jwOPmnAcVUzZcuJE3_t-93" value="" style="endArrow=none;html=1;rounded=0;" parent="1" source="4jwOPmnAcVUzZcuJE3_t-90" target="4jwOPmnAcVUzZcuJE3_t-87" edge="1">
          <mxGeometry width="50" height="50" relative="1" as="geometry">
            <mxPoint x="514.442762821656" y="1082.5340950873658" as="sourcePoint" />
            <mxPoint x="567.2381574449921" y="1028.9663519482242" as="targetPoint" />
          </mxGeometry>
        </mxCell>
        <mxCell id="4jwOPmnAcVUzZcuJE3_t-94" value="" style="endArrow=none;html=1;rounded=0;" parent="1" source="4jwOPmnAcVUzZcuJE3_t-91" target="4jwOPmnAcVUzZcuJE3_t-87" edge="1">
          <mxGeometry width="50" height="50" relative="1" as="geometry">
            <mxPoint x="303.2611843283114" y="1189.6695813656495" as="sourcePoint" />
            <mxPoint x="356.05657895164757" y="1136.1018382265077" as="targetPoint" />
          </mxGeometry>
        </mxCell>
        <mxCell id="4jwOPmnAcVUzZcuJE3_t-95" value="" style="endArrow=none;html=1;rounded=0;" parent="1" source="4jwOPmnAcVUzZcuJE3_t-89" target="4jwOPmnAcVUzZcuJE3_t-87" edge="1">
          <mxGeometry width="50" height="50" relative="1" as="geometry">
            <mxPoint x="514.442762821656" y="1082.5340950873658" as="sourcePoint" />
            <mxPoint x="567.2381574449921" y="1028.9663519482242" as="targetPoint" />
          </mxGeometry>
        </mxCell>
        <mxCell id="4jwOPmnAcVUzZcuJE3_t-96" value="" style="endArrow=none;html=1;rounded=0;" parent="1" source="4jwOPmnAcVUzZcuJE3_t-92" target="4jwOPmnAcVUzZcuJE3_t-87" edge="1">
          <mxGeometry width="50" height="50" relative="1" as="geometry">
            <mxPoint x="567.2381574449921" y="1071.8205464595376" as="sourcePoint" />
            <mxPoint x="620.0335520683282" y="1018.2528033203957" as="targetPoint" />
          </mxGeometry>
        </mxCell>
        <mxCell id="9oDq2MyCT_PDLGaKUW5d-3" value="student" style="rounded=1;arcSize=10;whiteSpace=wrap;html=1;align=center;fontStyle=1;container=0;fillColor=#d5e8d4;strokeColor=#82b366;" parent="1" vertex="1">
          <mxGeometry x="407.4708830050078" y="246.41368228213264" width="96.79155680944957" height="38.56877506018206" as="geometry" />
        </mxCell>
        <mxCell id="9oDq2MyCT_PDLGaKUW5d-6" value="firstName" style="ellipse;whiteSpace=wrap;html=1;align=center;container=0;" parent="1" vertex="1">
          <mxGeometry x="429.9701705146133" y="124.27490722195063" width="77.43324544755966" height="28.926581295136543" as="geometry" />
        </mxCell>
        <mxCell id="9oDq2MyCT_PDLGaKUW5d-7" value="lastName" style="ellipse;whiteSpace=wrap;html=1;align=center;container=0;" parent="1" vertex="1">
          <mxGeometry x="383.43763755744817" y="150.238325926814" width="77.43324544755966" height="28.926581295136543" as="geometry" />
        </mxCell>
        <mxCell id="9oDq2MyCT_PDLGaKUW5d-8" value="email" style="ellipse;whiteSpace=wrap;html=1;align=center;container=0;" parent="1" vertex="1">
          <mxGeometry x="468.72882168130985" y="156.96271345690508" width="77.43324544755966" height="28.926581295136543" as="geometry" />
        </mxCell>
        <mxCell id="9oDq2MyCT_PDLGaKUW5d-11" value="pass" style="ellipse;whiteSpace=wrap;html=1;align=center;container=0;" parent="1" vertex="1">
          <mxGeometry x="281.4601705146133" y="165.67368228213263" width="77.43324544755966" height="28.926581295136543" as="geometry" />
        </mxCell>
        <mxCell id="9oDq2MyCT_PDLGaKUW5d-12" value="profileImg" style="ellipse;whiteSpace=wrap;html=1;align=center;container=0;" parent="1" vertex="1">
          <mxGeometry x="417.1501705146133" y="332.1224573423147" width="77.43324544755966" height="28.926581295136543" as="geometry" />
        </mxCell>
        <mxCell id="9oDq2MyCT_PDLGaKUW5d-14" value="role" style="ellipse;whiteSpace=wrap;html=1;align=center;container=0;" parent="1" vertex="1">
          <mxGeometry x="487.53693565514783" y="362.87903863745134" width="77.43324544755966" height="28.926581295136543" as="geometry" />
        </mxCell>
        <mxCell id="9oDq2MyCT_PDLGaKUW5d-15" value="" style="endArrow=none;html=1;rounded=0;" parent="1" source="9oDq2MyCT_PDLGaKUW5d-6" target="9oDq2MyCT_PDLGaKUW5d-3" edge="1">
          <mxGeometry relative="1" as="geometry">
            <mxPoint x="320.35848187650316" y="235.8072691405826" as="sourcePoint" />
            <mxPoint x="475.2249727716225" y="235.8072691405826" as="targetPoint" />
          </mxGeometry>
        </mxCell>
        <mxCell id="9oDq2MyCT_PDLGaKUW5d-18" value="" style="endArrow=none;html=1;rounded=0;entryX=0.612;entryY=-0.023;entryDx=0;entryDy=0;entryPerimeter=0;exitX=0.5;exitY=1;exitDx=0;exitDy=0;" parent="1" source="9oDq2MyCT_PDLGaKUW5d-8" target="9oDq2MyCT_PDLGaKUW5d-3" edge="1">
          <mxGeometry relative="1" as="geometry">
            <mxPoint x="465.54581709067753" y="188.56051969185958" as="sourcePoint" />
            <mxPoint x="620.4123079857968" y="188.56051969185958" as="targetPoint" />
          </mxGeometry>
        </mxCell>
        <mxCell id="9oDq2MyCT_PDLGaKUW5d-19" value="" style="resizable=0;html=1;whiteSpace=wrap;align=right;verticalAlign=bottom;container=0;" parent="9oDq2MyCT_PDLGaKUW5d-18" connectable="0" vertex="1">
          <mxGeometry x="1" relative="1" as="geometry" />
        </mxCell>
        <mxCell id="9oDq2MyCT_PDLGaKUW5d-22" value="" style="endArrow=none;html=1;rounded=0;exitX=0.411;exitY=0.976;exitDx=0;exitDy=0;exitPerimeter=0;entryX=0.25;entryY=0;entryDx=0;entryDy=0;" parent="1" source="9oDq2MyCT_PDLGaKUW5d-7" target="9oDq2MyCT_PDLGaKUW5d-3" edge="1">
          <mxGeometry relative="1" as="geometry">
            <mxPoint x="378.4334159621729" y="207.84490722195062" as="sourcePoint" />
            <mxPoint x="533.2999068572923" y="207.84490722195062" as="targetPoint" />
          </mxGeometry>
        </mxCell>
        <mxCell id="9oDq2MyCT_PDLGaKUW5d-26" value="" style="endArrow=none;html=1;rounded=0;" parent="1" source="9oDq2MyCT_PDLGaKUW5d-11" target="9oDq2MyCT_PDLGaKUW5d-3" edge="1">
          <mxGeometry relative="1" as="geometry">
            <mxPoint x="368.7542602812279" y="265.6980698122237" as="sourcePoint" />
            <mxPoint x="426.82919436689775" y="265.6980698122237" as="targetPoint" />
          </mxGeometry>
        </mxCell>
        <mxCell id="9oDq2MyCT_PDLGaKUW5d-29" value="" style="endArrow=none;html=1;rounded=0;" parent="1" source="9oDq2MyCT_PDLGaKUW5d-12" target="9oDq2MyCT_PDLGaKUW5d-3" edge="1">
          <mxGeometry relative="1" as="geometry">
            <mxPoint x="378.4334159621729" y="299.2143353395219" as="sourcePoint" />
            <mxPoint x="533.2999068572923" y="299.2143353395219" as="targetPoint" />
          </mxGeometry>
        </mxCell>
        <mxCell id="9oDq2MyCT_PDLGaKUW5d-31" value="" style="endArrow=none;html=1;rounded=0;exitX=0.679;exitY=0.111;exitDx=0;exitDy=0;exitPerimeter=0;" parent="1" source="9oDq2MyCT_PDLGaKUW5d-46" target="9oDq2MyCT_PDLGaKUW5d-3" edge="1">
          <mxGeometry relative="1" as="geometry">
            <mxPoint x="399.2629589875666" y="313.85118547486087" as="sourcePoint" />
            <mxPoint x="572.0165295810721" y="294.62465110736025" as="targetPoint" />
          </mxGeometry>
        </mxCell>
        <mxCell id="9oDq2MyCT_PDLGaKUW5d-33" value="" style="endArrow=none;html=1;rounded=0;" parent="1" source="9oDq2MyCT_PDLGaKUW5d-14" target="9oDq2MyCT_PDLGaKUW5d-3" edge="1">
          <mxGeometry relative="1" as="geometry">
            <mxPoint x="417.1500386859528" y="294.62465110736025" as="sourcePoint" />
            <mxPoint x="572.0165295810721" y="294.62465110736025" as="targetPoint" />
          </mxGeometry>
        </mxCell>
        <mxCell id="9oDq2MyCT_PDLGaKUW5d-36" value="id (PK)" style="ellipse;whiteSpace=wrap;html=1;align=center;container=0;" parent="1" vertex="1">
          <mxGeometry x="492.71966365944627" y="198.19832592681405" width="77.43324544755966" height="28.926581295136543" as="geometry" />
        </mxCell>
        <mxCell id="9oDq2MyCT_PDLGaKUW5d-37" value="" style="endArrow=none;html=1;rounded=0;exitX=0.426;exitY=0.957;exitDx=0;exitDy=0;exitPerimeter=0;" parent="1" source="9oDq2MyCT_PDLGaKUW5d-36" edge="1">
          <mxGeometry relative="1" as="geometry">
            <mxPoint x="417.1500386859528" y="323.5512324024968" as="sourcePoint" />
            <mxPoint x="475.2249727716225" y="246.41368228213264" as="targetPoint" />
          </mxGeometry>
        </mxCell>
        <mxCell id="9oDq2MyCT_PDLGaKUW5d-46" value="phone" style="ellipse;shape=doubleEllipse;margin=3;whiteSpace=wrap;html=1;align=center;container=0;" parent="1" vertex="1">
          <mxGeometry x="279.5436902075882" y="203.0193615791938" width="77.43324544755966" height="28.926581295136543" as="geometry" />
        </mxCell>
        <mxCell id="4jwOPmnAcVUzZcuJE3_t-102" value="registerDate" style="ellipse;whiteSpace=wrap;html=1;align=center;container=0;" parent="1" vertex="1">
          <mxGeometry x="519.2194246357309" y="328.414265069805" width="77.43324544755966" height="28.926581295136543" as="geometry" />
        </mxCell>
        <mxCell id="4jwOPmnAcVUzZcuJE3_t-103" value="update" style="ellipse;whiteSpace=wrap;html=1;align=center;container=0;" parent="1" vertex="1">
          <mxGeometry x="519.2202666138674" y="289.5817483630169" width="77.43324544755966" height="28.926581295136543" as="geometry" />
        </mxCell>
        <mxCell id="4jwOPmnAcVUzZcuJE3_t-104" value="" style="endArrow=none;html=1;rounded=0;" parent="1" source="4jwOPmnAcVUzZcuJE3_t-102" target="9oDq2MyCT_PDLGaKUW5d-3" edge="1">
          <mxGeometry width="50" height="50" relative="1" as="geometry">
            <mxPoint x="406.5909597612855" y="437.1148478574773" as="sourcePoint" />
            <mxPoint x="459.3863543846217" y="383.54710471833556" as="targetPoint" />
          </mxGeometry>
        </mxCell>
        <mxCell id="4jwOPmnAcVUzZcuJE3_t-105" value="" style="endArrow=none;html=1;rounded=0;" parent="1" source="4jwOPmnAcVUzZcuJE3_t-103" target="9oDq2MyCT_PDLGaKUW5d-3" edge="1">
          <mxGeometry width="50" height="50" relative="1" as="geometry">
            <mxPoint x="448.8272754599545" y="372.8335560905072" as="sourcePoint" />
            <mxPoint x="501.62267008329053" y="319.26581295136543" as="targetPoint" />
          </mxGeometry>
        </mxCell>
        <mxCell id="4jwOPmnAcVUzZcuJE3_t-107" value="" style="edgeStyle=entityRelationEdgeStyle;fontSize=12;html=1;endArrow=ERoneToMany;rounded=0;strokeWidth=2;" parent="1" source="9oDq2MyCT_PDLGaKUW5d-3" target="hkLjKDGK27syPsgmW7o1-1" edge="1">
          <mxGeometry width="100" height="100" relative="1" as="geometry">
            <mxPoint x="681.1270118026333" y="394.2606533461639" as="sourcePoint" />
            <mxPoint x="786.7178010493058" y="287.12516706788045" as="targetPoint" />
          </mxGeometry>
        </mxCell>
        <mxCell id="9oDq2MyCT_PDLGaKUW5d-44" value="enroll" style="rhombus;whiteSpace=wrap;html=1;rounded=1;arcSize=10;fontStyle=1;direction=south;container=0;fillColor=#ffe6cc;strokeColor=#d79b00;" parent="1" vertex="1">
          <mxGeometry x="653.1454526522652" y="231.95039163456443" width="73.91355247267059" height="67.4953563553186" as="geometry" />
        </mxCell>
        <mxCell id="4jwOPmnAcVUzZcuJE3_t-127" value="" style="endArrow=none;html=1;rounded=0;strokeWidth=2;" parent="1" source="4jwOPmnAcVUzZcuJE3_t-30" target="4jwOPmnAcVUzZcuJE3_t-87" edge="1">
          <mxGeometry relative="1" as="geometry">
            <mxPoint x="451.13052558935124" y="932.5444142977692" as="sourcePoint" />
            <mxPoint x="620.0757883840269" y="932.5444142977692" as="targetPoint" />
          </mxGeometry>
        </mxCell>
        <mxCell id="4jwOPmnAcVUzZcuJE3_t-128" value="" style="endArrow=none;html=1;rounded=0;entryX=0;entryY=0.5;entryDx=0;entryDy=0;strokeWidth=2;" parent="1" source="4jwOPmnAcVUzZcuJE3_t-85" target="4jwOPmnAcVUzZcuJE3_t-87" edge="1">
          <mxGeometry relative="1" as="geometry">
            <mxPoint x="313.8624995686773" y="1039.6799005760527" as="sourcePoint" />
            <mxPoint x="482.80776236335294" y="1039.6799005760527" as="targetPoint" />
          </mxGeometry>
        </mxCell>
        <mxCell id="4jwOPmnAcVUzZcuJE3_t-129" value="" style="endArrow=none;html=1;rounded=0;strokeWidth=2;" parent="1" source="9oDq2MyCT_PDLGaKUW5d-47" target="4jwOPmnAcVUzZcuJE3_t-85" edge="1">
          <mxGeometry relative="1" as="geometry">
            <mxPoint x="261.06710494534116" y="939.4546531627185" as="sourcePoint" />
            <mxPoint x="430.0123677400168" y="939.4546531627185" as="targetPoint" />
          </mxGeometry>
        </mxCell>
        <mxCell id="4jwOPmnAcVUzZcuJE3_t-130" value="" style="endArrow=none;html=1;rounded=0;strokeWidth=2;" parent="1" source="4jwOPmnAcVUzZcuJE3_t-14" target="9oDq2MyCT_PDLGaKUW5d-44" edge="1">
          <mxGeometry relative="1" as="geometry">
            <mxPoint x="649.4497750286317" y="212.13032667308195" as="sourcePoint" />
            <mxPoint x="818.3950378233073" y="212.13032667308195" as="targetPoint" />
          </mxGeometry>
        </mxCell>
        <mxCell id="4jwOPmnAcVUzZcuJE3_t-133" value="" style="edgeStyle=entityRelationEdgeStyle;fontSize=12;html=1;endArrow=ERoneToMany;rounded=0;strokeWidth=2;" parent="1" source="4jwOPmnAcVUzZcuJE3_t-28" target="4jwOPmnAcVUzZcuJE3_t-134" edge="1">
          <mxGeometry width="100" height="100" relative="1" as="geometry">
            <mxPoint x="924.3558270699797" y="612.2816259027309" as="sourcePoint" />
            <mxPoint x="1029.9466163166521" y="505.1461396244474" as="targetPoint" />
            <Array as="points">
              <mxPoint x="977.1512216933157" y="590.8545286470742" />
            </Array>
          </mxGeometry>
        </mxCell>
        <mxCell id="9oDq2MyCT_PDLGaKUW5d-47" value="&lt;b&gt;instructor&lt;/b&gt;" style="rounded=1;arcSize=10;whiteSpace=wrap;html=1;align=center;container=0;fillColor=#d5e8d4;strokeColor=#82b366;" parent="1" vertex="1">
          <mxGeometry x="215.89687353805067" y="822.9193448325268" width="119.08735629323941" height="52.103301240373845" as="geometry" />
        </mxCell>
        <mxCell id="9oDq2MyCT_PDLGaKUW5d-48" value="id" style="ellipse;whiteSpace=wrap;html=1;align=center;container=0;" parent="1" vertex="1">
          <mxGeometry x="37.27000000000001" y="898.2338930610686" width="71.45241377594364" height="26.051650620186923" as="geometry" />
        </mxCell>
        <mxCell id="9oDq2MyCT_PDLGaKUW5d-49" value="firstName" style="ellipse;whiteSpace=wrap;html=1;align=center;container=0;" parent="1" vertex="1">
          <mxGeometry x="108.57069716402071" y="905.6141816361779" width="71.45241377594364" height="26.051650620186923" as="geometry" />
        </mxCell>
        <mxCell id="9oDq2MyCT_PDLGaKUW5d-50" value="lastName" style="ellipse;whiteSpace=wrap;html=1;align=center;container=0;" parent="1" vertex="1">
          <mxGeometry x="186.1532683339159" y="898.2411175112816" width="71.45241377594364" height="26.051650620186923" as="geometry" />
        </mxCell>
        <mxCell id="9oDq2MyCT_PDLGaKUW5d-51" value="email" style="ellipse;whiteSpace=wrap;html=1;align=center;container=0;" parent="1" vertex="1">
          <mxGeometry x="87.43" y="862.6235215687398" width="71.45241377594364" height="24.749068089177573" as="geometry" />
        </mxCell>
        <mxCell id="9oDq2MyCT_PDLGaKUW5d-52" value="pass" style="ellipse;whiteSpace=wrap;html=1;align=center;container=0;" parent="1" vertex="1">
          <mxGeometry x="86.31181578493344" y="835.5130864791329" width="71.45241377594364" height="24.749068089177573" as="geometry" />
        </mxCell>
        <mxCell id="9oDq2MyCT_PDLGaKUW5d-54" value="profileImg" style="ellipse;whiteSpace=wrap;html=1;align=center;container=0;" parent="1" vertex="1">
          <mxGeometry x="80.36089470960069" y="796.8725241949696" width="83.3611494052676" height="26.051650620186923" as="geometry" />
        </mxCell>
        <mxCell id="9oDq2MyCT_PDLGaKUW5d-55" value="profileCover" style="ellipse;whiteSpace=wrap;html=1;align=center;container=0;" parent="1" vertex="1">
          <mxGeometry x="90.70519185869236" y="760.8400274902251" width="89.31551721992956" height="31.261980744224307" as="geometry" />
        </mxCell>
        <mxCell id="9oDq2MyCT_PDLGaKUW5d-56" value="about" style="ellipse;whiteSpace=wrap;html=1;align=center;container=0;" parent="1" vertex="1">
          <mxGeometry x="165.2665947535663" y="739.9979951057323" width="71.45241377594364" height="26.051650620186923" as="geometry" />
        </mxCell>
        <mxCell id="9oDq2MyCT_PDLGaKUW5d-57" value="sub1" style="ellipse;whiteSpace=wrap;html=1;align=center;container=0;" parent="1" vertex="1">
          <mxGeometry x="349.99280872269554" y="904.9478812788695" width="71.45241377594364" height="26.051650620186923" as="geometry" />
        </mxCell>
        <mxCell id="9oDq2MyCT_PDLGaKUW5d-58" value="sub2" style="ellipse;whiteSpace=wrap;html=1;align=center;container=0;" parent="1" vertex="1">
          <mxGeometry x="344.98060964995847" y="866.5471490684083" width="71.45241377594364" height="26.051650620186923" as="geometry" />
        </mxCell>
        <mxCell id="9oDq2MyCT_PDLGaKUW5d-59" value="address" style="ellipse;whiteSpace=wrap;html=1;align=center;container=0;" parent="1" vertex="1">
          <mxGeometry x="261.15" y="730" width="68.89" height="30.84" as="geometry" />
        </mxCell>
        <mxCell id="9oDq2MyCT_PDLGaKUW5d-60" value="role" style="ellipse;whiteSpace=wrap;html=1;align=center;container=0;" parent="1" vertex="1">
          <mxGeometry x="205.09646073495517" y="703.9479951057323" width="71.45241377594364" height="26.051650620186923" as="geometry" />
        </mxCell>
        <mxCell id="9oDq2MyCT_PDLGaKUW5d-61" value="" style="endArrow=none;html=1;rounded=0;" parent="1" source="9oDq2MyCT_PDLGaKUW5d-48" target="9oDq2MyCT_PDLGaKUW5d-47" edge="1">
          <mxGeometry relative="1" as="geometry">
            <mxPoint x="269.40229881053517" y="866.7610246833586" as="sourcePoint" />
            <mxPoint x="459.94206887971825" y="866.7610246833586" as="targetPoint" />
          </mxGeometry>
        </mxCell>
        <mxCell id="9oDq2MyCT_PDLGaKUW5d-63" value="" style="endArrow=none;html=1;rounded=0;exitX=1;exitY=0.5;exitDx=0;exitDy=0;" parent="1" source="9oDq2MyCT_PDLGaKUW5d-51" target="9oDq2MyCT_PDLGaKUW5d-47" edge="1">
          <mxGeometry relative="1" as="geometry">
            <mxPoint x="269.40229881053517" y="866.7610246833586" as="sourcePoint" />
            <mxPoint x="459.94206887971825" y="866.7610246833586" as="targetPoint" />
          </mxGeometry>
        </mxCell>
        <mxCell id="9oDq2MyCT_PDLGaKUW5d-65" value="" style="endArrow=none;html=1;rounded=0;exitX=0.982;exitY=0.697;exitDx=0;exitDy=0;exitPerimeter=0;" parent="1" source="9oDq2MyCT_PDLGaKUW5d-52" target="9oDq2MyCT_PDLGaKUW5d-47" edge="1">
          <mxGeometry relative="1" as="geometry">
            <mxPoint x="269.40229881053517" y="866.7610246833586" as="sourcePoint" />
            <mxPoint x="459.94206887971825" y="866.7610246833586" as="targetPoint" />
          </mxGeometry>
        </mxCell>
        <mxCell id="9oDq2MyCT_PDLGaKUW5d-67" value="" style="endArrow=none;html=1;rounded=0;" parent="1" source="9oDq2MyCT_PDLGaKUW5d-54" target="9oDq2MyCT_PDLGaKUW5d-47" edge="1">
          <mxGeometry relative="1" as="geometry">
            <mxPoint x="269.40229881053517" y="866.7610246833586" as="sourcePoint" />
            <mxPoint x="459.94206887971825" y="866.7610246833586" as="targetPoint" />
          </mxGeometry>
        </mxCell>
        <mxCell id="9oDq2MyCT_PDLGaKUW5d-68" value="" style="resizable=0;html=1;whiteSpace=wrap;align=right;verticalAlign=bottom;container=0;" parent="9oDq2MyCT_PDLGaKUW5d-67" connectable="0" vertex="1">
          <mxGeometry x="1" relative="1" as="geometry" />
        </mxCell>
        <mxCell id="9oDq2MyCT_PDLGaKUW5d-70" value="" style="endArrow=none;html=1;rounded=0;exitX=0.662;exitY=1;exitDx=0;exitDy=0;exitPerimeter=0;" parent="1" source="9oDq2MyCT_PDLGaKUW5d-55" target="9oDq2MyCT_PDLGaKUW5d-47" edge="1">
          <mxGeometry relative="1" as="geometry">
            <mxPoint x="269.40229881053517" y="866.7610246833586" as="sourcePoint" />
            <mxPoint x="459.94206887971825" y="866.7610246833586" as="targetPoint" />
          </mxGeometry>
        </mxCell>
        <mxCell id="9oDq2MyCT_PDLGaKUW5d-72" value="" style="endArrow=none;html=1;rounded=0;" parent="1" source="9oDq2MyCT_PDLGaKUW5d-56" target="9oDq2MyCT_PDLGaKUW5d-47" edge="1">
          <mxGeometry relative="1" as="geometry">
            <mxPoint x="269.40229881053517" y="866.7610246833586" as="sourcePoint" />
            <mxPoint x="267.0205516846704" y="814.6577234429848" as="targetPoint" />
          </mxGeometry>
        </mxCell>
        <mxCell id="9oDq2MyCT_PDLGaKUW5d-74" value="" style="endArrow=none;html=1;rounded=0;exitX=0.646;exitY=0.981;exitDx=0;exitDy=0;exitPerimeter=0;" parent="1" source="9oDq2MyCT_PDLGaKUW5d-59" target="9oDq2MyCT_PDLGaKUW5d-47" edge="1">
          <mxGeometry relative="1" as="geometry">
            <mxPoint x="269.40229881053517" y="866.7610246833586" as="sourcePoint" />
            <mxPoint x="459.94206887971825" y="866.7610246833586" as="targetPoint" />
          </mxGeometry>
        </mxCell>
        <mxCell id="9oDq2MyCT_PDLGaKUW5d-76" value="" style="endArrow=none;html=1;rounded=0;" parent="1" source="9oDq2MyCT_PDLGaKUW5d-60" target="9oDq2MyCT_PDLGaKUW5d-47" edge="1">
          <mxGeometry relative="1" as="geometry">
            <mxPoint x="269.40229881053517" y="866.7610246833586" as="sourcePoint" />
            <mxPoint x="459.94206887971825" y="866.7610246833586" as="targetPoint" />
          </mxGeometry>
        </mxCell>
        <mxCell id="9oDq2MyCT_PDLGaKUW5d-78" value="" style="endArrow=none;html=1;rounded=0;" parent="1" source="9oDq2MyCT_PDLGaKUW5d-49" target="9oDq2MyCT_PDLGaKUW5d-47" edge="1">
          <mxGeometry relative="1" as="geometry">
            <mxPoint x="269.40229881053517" y="866.7610246833586" as="sourcePoint" />
            <mxPoint x="459.94206887971825" y="866.7610246833586" as="targetPoint" />
          </mxGeometry>
        </mxCell>
        <mxCell id="9oDq2MyCT_PDLGaKUW5d-80" value="" style="endArrow=none;html=1;rounded=0;entryX=0.325;entryY=1.018;entryDx=0;entryDy=0;entryPerimeter=0;" parent="1" source="9oDq2MyCT_PDLGaKUW5d-50" target="9oDq2MyCT_PDLGaKUW5d-47" edge="1">
          <mxGeometry relative="1" as="geometry">
            <mxPoint x="269.40229881053517" y="866.7610246833586" as="sourcePoint" />
            <mxPoint x="459.94206887971825" y="866.7610246833586" as="targetPoint" />
          </mxGeometry>
        </mxCell>
        <mxCell id="9oDq2MyCT_PDLGaKUW5d-82" value="" style="endArrow=none;html=1;rounded=0;" parent="1" source="4jwOPmnAcVUzZcuJE3_t-313" target="9oDq2MyCT_PDLGaKUW5d-47" edge="1">
          <mxGeometry relative="1" as="geometry">
            <mxPoint x="306.2473520645925" y="891.5744352219374" as="sourcePoint" />
            <mxPoint x="459.94206887971825" y="866.7610246833586" as="targetPoint" />
          </mxGeometry>
        </mxCell>
        <mxCell id="9oDq2MyCT_PDLGaKUW5d-84" value="" style="endArrow=none;html=1;rounded=0;" parent="1" source="9oDq2MyCT_PDLGaKUW5d-57" target="9oDq2MyCT_PDLGaKUW5d-47" edge="1">
          <mxGeometry relative="1" as="geometry">
            <mxPoint x="269.40229881053517" y="866.7610246833586" as="sourcePoint" />
            <mxPoint x="459.94206887971825" y="866.7610246833586" as="targetPoint" />
          </mxGeometry>
        </mxCell>
        <mxCell id="9oDq2MyCT_PDLGaKUW5d-86" value="" style="endArrow=none;html=1;rounded=0;" parent="1" source="9oDq2MyCT_PDLGaKUW5d-58" target="9oDq2MyCT_PDLGaKUW5d-47" edge="1">
          <mxGeometry relative="1" as="geometry">
            <mxPoint x="352.7634482158028" y="866.7610246833586" as="sourcePoint" />
            <mxPoint x="459.94206887971825" y="866.7610246833586" as="targetPoint" />
          </mxGeometry>
        </mxCell>
        <mxCell id="4jwOPmnAcVUzZcuJE3_t-14" value="student_payment_table" style="whiteSpace=wrap;html=1;rounded=1;arcSize=10;fontStyle=1;container=0;fillColor=#d5e8d4;strokeColor=#82b366;" parent="1" vertex="1">
          <mxGeometry x="606.9494823568461" y="139.2781960038492" width="163.1377693861087" height="42.8541945113134" as="geometry" />
        </mxCell>
        <mxCell id="4jwOPmnAcVUzZcuJE3_t-16" value="id (PK)" style="ellipse;whiteSpace=wrap;html=1;align=center;container=0;" parent="1" vertex="1">
          <mxGeometry x="642.4033496929039" y="30" width="77.43324544755966" height="28.926581295136547" as="geometry" />
        </mxCell>
        <mxCell id="4jwOPmnAcVUzZcuJE3_t-17" value="studentId" style="ellipse;whiteSpace=wrap;html=1;align=center;container=0;" parent="1" vertex="1">
          <mxGeometry x="564.9736239383191" y="95.35264662975294" width="77.43324544755966" height="28.926581295136547" as="geometry" />
        </mxCell>
        <mxCell id="4jwOPmnAcVUzZcuJE3_t-18" value="enrollId" style="ellipse;whiteSpace=wrap;html=1;align=center;container=0;" parent="1" vertex="1">
          <mxGeometry x="596.6508607123208" y="65.35471047183356" width="77.43324544755966" height="28.926581295136547" as="geometry" />
        </mxCell>
        <mxCell id="4jwOPmnAcVUzZcuJE3_t-19" value="paid" style="ellipse;whiteSpace=wrap;html=1;align=center;container=0;" parent="1" vertex="1">
          <mxGeometry x="692.6540062953952" y="58.92658129513654" width="77.43324544755966" height="28.926581295136547" as="geometry" />
        </mxCell>
        <mxCell id="4jwOPmnAcVUzZcuJE3_t-20" value="date" style="ellipse;whiteSpace=wrap;html=1;align=center;container=0;" parent="1" vertex="1">
          <mxGeometry x="733.9188867329947" y="89.99587231583877" width="77.43324544755966" height="28.926581295136547" as="geometry" />
        </mxCell>
        <mxCell id="4jwOPmnAcVUzZcuJE3_t-21" value="" style="endArrow=none;html=1;rounded=0;" parent="1" source="4jwOPmnAcVUzZcuJE3_t-17" target="4jwOPmnAcVUzZcuJE3_t-14" edge="1">
          <mxGeometry width="50" height="50" relative="1" as="geometry">
            <mxPoint x="797.276879973973" y="233.55742392873867" as="sourcePoint" />
            <mxPoint x="850.0722745973092" y="179.9896807895969" as="targetPoint" />
          </mxGeometry>
        </mxCell>
        <mxCell id="4jwOPmnAcVUzZcuJE3_t-22" value="" style="endArrow=none;html=1;rounded=0;" parent="1" source="4jwOPmnAcVUzZcuJE3_t-18" target="4jwOPmnAcVUzZcuJE3_t-14" edge="1">
          <mxGeometry width="50" height="50" relative="1" as="geometry">
            <mxPoint x="797.276879973973" y="233.55742392873867" as="sourcePoint" />
            <mxPoint x="850.0722745973092" y="179.9896807895969" as="targetPoint" />
          </mxGeometry>
        </mxCell>
        <mxCell id="4jwOPmnAcVUzZcuJE3_t-23" value="" style="endArrow=none;html=1;rounded=0;" parent="1" source="4jwOPmnAcVUzZcuJE3_t-14" target="4jwOPmnAcVUzZcuJE3_t-16" edge="1">
          <mxGeometry width="50" height="50" relative="1" as="geometry">
            <mxPoint x="797.276879973973" y="233.55742392873867" as="sourcePoint" />
            <mxPoint x="850.0722745973092" y="179.9896807895969" as="targetPoint" />
          </mxGeometry>
        </mxCell>
        <mxCell id="4jwOPmnAcVUzZcuJE3_t-24" value="" style="endArrow=none;html=1;rounded=0;" parent="1" source="4jwOPmnAcVUzZcuJE3_t-14" target="4jwOPmnAcVUzZcuJE3_t-19" edge="1">
          <mxGeometry width="50" height="50" relative="1" as="geometry">
            <mxPoint x="797.276879973973" y="233.55742392873867" as="sourcePoint" />
            <mxPoint x="850.0722745973092" y="179.9896807895969" as="targetPoint" />
          </mxGeometry>
        </mxCell>
        <mxCell id="4jwOPmnAcVUzZcuJE3_t-25" value="" style="endArrow=none;html=1;rounded=0;" parent="1" source="4jwOPmnAcVUzZcuJE3_t-14" target="4jwOPmnAcVUzZcuJE3_t-20" edge="1">
          <mxGeometry width="50" height="50" relative="1" as="geometry">
            <mxPoint x="797.276879973973" y="233.55742392873867" as="sourcePoint" />
            <mxPoint x="850.0722745973092" y="179.9896807895969" as="targetPoint" />
          </mxGeometry>
        </mxCell>
        <mxCell id="4jwOPmnAcVUzZcuJE3_t-159" value="" style="group" parent="1" vertex="1" connectable="0">
          <mxGeometry x="871.1869127536687" y="169.27613216176854" width="193.58311361889923" height="189.62981071256183" as="geometry" />
        </mxCell>
        <mxCell id="hkLjKDGK27syPsgmW7o1-1" value="enrollment" style="whiteSpace=wrap;html=1;rounded=1;arcSize=10;fontStyle=1;container=0;fillColor=#d5e8d4;strokeColor=#82b366;" parent="4jwOPmnAcVUzZcuJE3_t-159" vertex="1">
          <mxGeometry x="42.23983539164384" y="73.65564681631992" width="84.4726313973378" height="45.53258166827049" as="geometry" />
        </mxCell>
        <mxCell id="4jwOPmnAcVUzZcuJE3_t-1" value="id (PK)" style="ellipse;whiteSpace=wrap;html=1;align=center;container=0;" parent="4jwOPmnAcVUzZcuJE3_t-159" vertex="1">
          <mxGeometry y="32.14064588348506" width="77.43324544755966" height="28.926581295136543" as="geometry" />
        </mxCell>
        <mxCell id="4jwOPmnAcVUzZcuJE3_t-2" value="courseId" style="ellipse;whiteSpace=wrap;html=1;align=center;container=0;" parent="4jwOPmnAcVUzZcuJE3_t-159" vertex="1">
          <mxGeometry x="105.5907892466723" y="29.99793615791937" width="77.43324544755966" height="28.926581295136543" as="geometry" />
        </mxCell>
        <mxCell id="4jwOPmnAcVUzZcuJE3_t-3" value="studentId" style="ellipse;whiteSpace=wrap;html=1;align=center;container=0;" parent="4jwOPmnAcVUzZcuJE3_t-159" vertex="1">
          <mxGeometry x="45.763048059507824" width="77.43324544755966" height="28.926581295136543" as="geometry" />
        </mxCell>
        <mxCell id="4jwOPmnAcVUzZcuJE3_t-4" value="paid" style="ellipse;whiteSpace=wrap;html=1;align=center;container=0;" parent="4jwOPmnAcVUzZcuJE3_t-159" vertex="1">
          <mxGeometry x="63.35447354800333" y="160.70322941742526" width="77.43324544755966" height="28.926581295136543" as="geometry" />
        </mxCell>
        <mxCell id="4jwOPmnAcVUzZcuJE3_t-5" value="payDue" style="ellipse;whiteSpace=wrap;html=1;align=center;container=0;" parent="4jwOPmnAcVUzZcuJE3_t-159" vertex="1">
          <mxGeometry x="116.14986817133953" y="131.77664812228872" width="77.43324544755966" height="28.926581295136543" as="geometry" />
        </mxCell>
        <mxCell id="4jwOPmnAcVUzZcuJE3_t-6" value="enrollDate" style="ellipse;whiteSpace=wrap;html=1;align=center;container=0;" parent="4jwOPmnAcVUzZcuJE3_t-159" vertex="1">
          <mxGeometry x="9.503171032200518" y="133.9193578478544" width="77.43324544755966" height="28.926581295136543" as="geometry" />
        </mxCell>
        <mxCell id="4jwOPmnAcVUzZcuJE3_t-7" value="" style="endArrow=none;html=1;rounded=0;" parent="4jwOPmnAcVUzZcuJE3_t-159" source="4jwOPmnAcVUzZcuJE3_t-1" target="hkLjKDGK27syPsgmW7o1-1" edge="1">
          <mxGeometry width="50" height="50" relative="1" as="geometry">
            <mxPoint x="95.03523001497992" y="267.83871569570874" as="sourcePoint" />
            <mxPoint x="147.830624638316" y="214.27097255656702" as="targetPoint" />
          </mxGeometry>
        </mxCell>
        <mxCell id="4jwOPmnAcVUzZcuJE3_t-8" value="" style="endArrow=none;html=1;rounded=0;" parent="4jwOPmnAcVUzZcuJE3_t-159" source="hkLjKDGK27syPsgmW7o1-1" target="4jwOPmnAcVUzZcuJE3_t-3" edge="1">
          <mxGeometry width="50" height="50" relative="1" as="geometry">
            <mxPoint x="95.03523001497992" y="267.83871569570874" as="sourcePoint" />
            <mxPoint x="147.830624638316" y="214.27097255656702" as="targetPoint" />
          </mxGeometry>
        </mxCell>
        <mxCell id="4jwOPmnAcVUzZcuJE3_t-9" value="" style="endArrow=none;html=1;rounded=0;" parent="4jwOPmnAcVUzZcuJE3_t-159" source="hkLjKDGK27syPsgmW7o1-1" target="4jwOPmnAcVUzZcuJE3_t-2" edge="1">
          <mxGeometry width="50" height="50" relative="1" as="geometry">
            <mxPoint x="95.03523001497992" y="267.83871569570874" as="sourcePoint" />
            <mxPoint x="147.830624638316" y="214.27097255656702" as="targetPoint" />
          </mxGeometry>
        </mxCell>
        <mxCell id="4jwOPmnAcVUzZcuJE3_t-10" value="" style="endArrow=none;html=1;rounded=0;" parent="4jwOPmnAcVUzZcuJE3_t-159" source="hkLjKDGK27syPsgmW7o1-1" target="4jwOPmnAcVUzZcuJE3_t-6" edge="1">
          <mxGeometry width="50" height="50" relative="1" as="geometry">
            <mxPoint x="95.03523001497992" y="267.83871569570874" as="sourcePoint" />
            <mxPoint x="147.830624638316" y="214.27097255656702" as="targetPoint" />
          </mxGeometry>
        </mxCell>
        <mxCell id="4jwOPmnAcVUzZcuJE3_t-11" value="" style="endArrow=none;html=1;rounded=0;" parent="4jwOPmnAcVUzZcuJE3_t-159" source="hkLjKDGK27syPsgmW7o1-1" target="4jwOPmnAcVUzZcuJE3_t-4" edge="1">
          <mxGeometry width="50" height="50" relative="1" as="geometry">
            <mxPoint x="95.03523001497992" y="267.83871569570874" as="sourcePoint" />
            <mxPoint x="147.830624638316" y="214.27097255656702" as="targetPoint" />
          </mxGeometry>
        </mxCell>
        <mxCell id="4jwOPmnAcVUzZcuJE3_t-12" value="" style="endArrow=none;html=1;rounded=0;" parent="4jwOPmnAcVUzZcuJE3_t-159" source="hkLjKDGK27syPsgmW7o1-1" target="4jwOPmnAcVUzZcuJE3_t-5" edge="1">
          <mxGeometry width="50" height="50" relative="1" as="geometry">
            <mxPoint x="95.03523001497992" y="267.83871569570874" as="sourcePoint" />
            <mxPoint x="147.830624638316" y="214.27097255656702" as="targetPoint" />
          </mxGeometry>
        </mxCell>
        <mxCell id="4jwOPmnAcVUzZcuJE3_t-132" value="&lt;b&gt;module&lt;br&gt;created&lt;br&gt;&lt;/b&gt;" style="shape=rhombus;perimeter=rhombusPerimeter;whiteSpace=wrap;html=1;align=center;container=0;fillColor=#ffe6cc;strokeColor=#d79b00;" parent="1" vertex="1">
          <mxGeometry x="890.9152241155585" y="543.7470553305129" width="116.14986817133949" height="83.53353865117765" as="geometry" />
        </mxCell>
        <mxCell id="4jwOPmnAcVUzZcuJE3_t-162" value="" style="edgeStyle=entityRelationEdgeStyle;shape=connector;rounded=0;orthogonalLoop=1;jettySize=auto;html=1;labelBackgroundColor=default;strokeColor=default;align=center;verticalAlign=middle;fontFamily=Helvetica;fontSize=12;fontColor=default;endArrow=ERoneToMany;strokeWidth=2;" parent="1" target="4jwOPmnAcVUzZcuJE3_t-163" edge="1">
          <mxGeometry relative="1" as="geometry">
            <mxPoint x="1167.338973468575" y="585.4227594927652" as="sourcePoint" />
          </mxGeometry>
        </mxCell>
        <mxCell id="4jwOPmnAcVUzZcuJE3_t-196" value="" style="group" parent="1" vertex="1" connectable="0">
          <mxGeometry x="1401.2613510179729" y="531.3797242363869" width="244.348648982027" height="149.4597776793463" as="geometry" />
        </mxCell>
        <mxCell id="4jwOPmnAcVUzZcuJE3_t-163" value="&lt;b&gt;quiz&lt;/b&gt;" style="rounded=1;arcSize=10;whiteSpace=wrap;html=1;align=center;fontFamily=Helvetica;fontSize=12;fillColor=#d5e8d4;strokeColor=#82b366;" parent="4jwOPmnAcVUzZcuJE3_t-196" vertex="1">
          <mxGeometry x="55.063024508811814" y="37.46802131457585" width="94.99514321639286" height="32.1047414041073" as="geometry" />
        </mxCell>
        <mxCell id="4jwOPmnAcVUzZcuJE3_t-165" value="id(pk)" style="ellipse;whiteSpace=wrap;html=1;align=center;container=0;" parent="4jwOPmnAcVUzZcuJE3_t-196" vertex="1">
          <mxGeometry y="93.21383630905615" width="77.43324544755966" height="28.926581295136543" as="geometry" />
        </mxCell>
        <mxCell id="4jwOPmnAcVUzZcuJE3_t-166" value="name" style="ellipse;whiteSpace=wrap;html=1;align=center;container=0;" parent="4jwOPmnAcVUzZcuJE3_t-196" vertex="1">
          <mxGeometry x="56.18280988766531" y="120.5331963842098" width="77.43324544755966" height="28.926581295136543" as="geometry" />
        </mxCell>
        <mxCell id="4jwOPmnAcVUzZcuJE3_t-167" value="moduleId" style="ellipse;whiteSpace=wrap;html=1;align=center;container=0;" parent="4jwOPmnAcVUzZcuJE3_t-196" vertex="1">
          <mxGeometry x="98.94348721208189" y="91.60747590990039" width="77.43324544755966" height="28.926581295136543" as="geometry" />
        </mxCell>
        <mxCell id="4jwOPmnAcVUzZcuJE3_t-168" value="question" style="ellipse;whiteSpace=wrap;html=1;align=center;container=0;" parent="4jwOPmnAcVUzZcuJE3_t-196" vertex="1">
          <mxGeometry x="139.01973802384865" width="77.43324544755966" height="28.926581295136543" as="geometry" />
        </mxCell>
        <mxCell id="4jwOPmnAcVUzZcuJE3_t-169" value="start" style="ellipse;whiteSpace=wrap;html=1;align=center;container=0;" parent="4jwOPmnAcVUzZcuJE3_t-196" vertex="1">
          <mxGeometry x="166.9154035344673" y="28.92572047430942" width="77.43324544755966" height="28.926581295136543" as="geometry" />
        </mxCell>
        <mxCell id="4jwOPmnAcVUzZcuJE3_t-170" value="end" style="ellipse;whiteSpace=wrap;html=1;align=center;container=0;" parent="4jwOPmnAcVUzZcuJE3_t-196" vertex="1">
          <mxGeometry x="155.73029306509335" y="69.57899519140675" width="77.43324544755966" height="28.926581295136543" as="geometry" />
        </mxCell>
        <mxCell id="4jwOPmnAcVUzZcuJE3_t-171" value="createdAt" style="ellipse;whiteSpace=wrap;html=1;align=center;container=0;" parent="4jwOPmnAcVUzZcuJE3_t-196" vertex="1">
          <mxGeometry y="1.2770771609878217e-13" width="77.43324544755966" height="28.926581295136543" as="geometry" />
        </mxCell>
        <mxCell id="4jwOPmnAcVUzZcuJE3_t-179" value="" style="endArrow=none;html=1;rounded=0;" parent="4jwOPmnAcVUzZcuJE3_t-196" source="4jwOPmnAcVUzZcuJE3_t-171" target="4jwOPmnAcVUzZcuJE3_t-163" edge="1">
          <mxGeometry relative="1" as="geometry">
            <mxPoint x="16.77861642728274" y="-91.62478419064288" as="sourcePoint" />
            <mxPoint x="26.845215849719285" y="-8.498441856705137" as="targetPoint" />
          </mxGeometry>
        </mxCell>
        <mxCell id="4jwOPmnAcVUzZcuJE3_t-181" value="" style="endArrow=none;html=1;rounded=0;" parent="4jwOPmnAcVUzZcuJE3_t-196" source="4jwOPmnAcVUzZcuJE3_t-163" target="4jwOPmnAcVUzZcuJE3_t-168" edge="1">
          <mxGeometry relative="1" as="geometry">
            <mxPoint x="70.4661959570558" y="38.193184315593015" as="sourcePoint" />
            <mxPoint x="87.24386166111671" y="48.30314486972058" as="targetPoint" />
          </mxGeometry>
        </mxCell>
        <mxCell id="4jwOPmnAcVUzZcuJE3_t-182" value="" style="endArrow=none;html=1;rounded=0;" parent="4jwOPmnAcVUzZcuJE3_t-196" source="4jwOPmnAcVUzZcuJE3_t-163" target="4jwOPmnAcVUzZcuJE3_t-169" edge="1">
          <mxGeometry relative="1" as="geometry">
            <mxPoint x="81.65130642642974" y="49.4264738201792" as="sourcePoint" />
            <mxPoint x="98.42897213049065" y="59.53643437430676" as="targetPoint" />
          </mxGeometry>
        </mxCell>
        <mxCell id="4jwOPmnAcVUzZcuJE3_t-183" value="" style="endArrow=none;html=1;rounded=0;" parent="4jwOPmnAcVUzZcuJE3_t-196" source="4jwOPmnAcVUzZcuJE3_t-163" target="4jwOPmnAcVUzZcuJE3_t-170" edge="1">
          <mxGeometry relative="1" as="geometry">
            <mxPoint x="92.83641689580368" y="60.65976332476538" as="sourcePoint" />
            <mxPoint x="109.61408259986459" y="70.76972387889295" as="targetPoint" />
          </mxGeometry>
        </mxCell>
        <mxCell id="4jwOPmnAcVUzZcuJE3_t-184" value="" style="endArrow=none;html=1;rounded=0;" parent="4jwOPmnAcVUzZcuJE3_t-196" source="4jwOPmnAcVUzZcuJE3_t-163" target="4jwOPmnAcVUzZcuJE3_t-167" edge="1">
          <mxGeometry relative="1" as="geometry">
            <mxPoint x="104.02152736517762" y="71.89305282935156" as="sourcePoint" />
            <mxPoint x="120.79919306923853" y="82.00301338347913" as="targetPoint" />
          </mxGeometry>
        </mxCell>
        <mxCell id="4jwOPmnAcVUzZcuJE3_t-185" value="" style="endArrow=none;html=1;rounded=0;" parent="4jwOPmnAcVUzZcuJE3_t-196" source="4jwOPmnAcVUzZcuJE3_t-163" target="4jwOPmnAcVUzZcuJE3_t-166" edge="1">
          <mxGeometry relative="1" as="geometry">
            <mxPoint x="115.20663783455156" y="83.12634233393774" as="sourcePoint" />
            <mxPoint x="131.98430353861247" y="93.23630288806531" as="targetPoint" />
          </mxGeometry>
        </mxCell>
        <mxCell id="4jwOPmnAcVUzZcuJE3_t-186" value="" style="endArrow=none;html=1;rounded=0;" parent="4jwOPmnAcVUzZcuJE3_t-196" source="4jwOPmnAcVUzZcuJE3_t-163" target="4jwOPmnAcVUzZcuJE3_t-165" edge="1">
          <mxGeometry relative="1" as="geometry">
            <mxPoint x="126.3917483039255" y="94.35963183852392" as="sourcePoint" />
            <mxPoint x="143.1694140079864" y="104.46959239265149" as="targetPoint" />
          </mxGeometry>
        </mxCell>
        <mxCell id="4jwOPmnAcVUzZcuJE3_t-198" value="&lt;b&gt;live_class&lt;/b&gt;" style="rounded=1;arcSize=10;whiteSpace=wrap;html=1;align=center;fontFamily=Helvetica;fontSize=12;fillColor=#d5e8d4;strokeColor=#82b366;" parent="1" vertex="1">
          <mxGeometry x="1255.9319363574812" y="864.5416251801848" width="100.66599422436543" height="33.699868513758545" as="geometry" />
        </mxCell>
        <mxCell id="4jwOPmnAcVUzZcuJE3_t-200" value="id(pk)" style="ellipse;whiteSpace=wrap;html=1;align=center;container=0;" parent="1" vertex="1">
          <mxGeometry x="1155.1889206917465" y="913.8956984465556" width="77.43324544755966" height="28.926581295136543" as="geometry" />
        </mxCell>
        <mxCell id="4jwOPmnAcVUzZcuJE3_t-206" value="" style="endArrow=none;html=1;rounded=0;" parent="1" source="4jwOPmnAcVUzZcuJE3_t-198" target="4jwOPmnAcVUzZcuJE3_t-200" edge="1">
          <mxGeometry relative="1" as="geometry">
            <mxPoint x="1237.9587381651136" y="880.5889950654575" as="sourcePoint" />
            <mxPoint x="1233.4846939773638" y="931.1387978360954" as="targetPoint" />
          </mxGeometry>
        </mxCell>
        <mxCell id="4jwOPmnAcVUzZcuJE3_t-207" value="moduleId" style="ellipse;whiteSpace=wrap;html=1;align=center;container=0;" parent="1" vertex="1">
          <mxGeometry x="1166.3740311611205" y="944.7647780051584" width="77.43324544755966" height="28.926581295136543" as="geometry" />
        </mxCell>
        <mxCell id="4jwOPmnAcVUzZcuJE3_t-208" value="" style="endArrow=none;html=1;rounded=0;" parent="1" source="4jwOPmnAcVUzZcuJE3_t-198" target="4jwOPmnAcVUzZcuJE3_t-207" edge="1">
          <mxGeometry relative="1" as="geometry">
            <mxPoint x="1290.5274830392548" y="909.9465813577222" as="sourcePoint" />
            <mxPoint x="1244.6698044467378" y="942.3720873406816" as="targetPoint" />
          </mxGeometry>
        </mxCell>
        <mxCell id="4jwOPmnAcVUzZcuJE3_t-209" value="topic" style="ellipse;whiteSpace=wrap;html=1;align=center;container=0;" parent="1" vertex="1">
          <mxGeometry x="1243.8085509405962" y="931.037698230554" width="77.43324544755966" height="28.926581295136543" as="geometry" />
        </mxCell>
        <mxCell id="4jwOPmnAcVUzZcuJE3_t-210" value="" style="endArrow=none;html=1;rounded=0;" parent="1" source="4jwOPmnAcVUzZcuJE3_t-198" target="4jwOPmnAcVUzZcuJE3_t-209" edge="1">
          <mxGeometry relative="1" as="geometry">
            <mxPoint x="1301.7125935086287" y="921.1798708623083" as="sourcePoint" />
            <mxPoint x="1255.8549149161117" y="953.6053768452678" as="targetPoint" />
          </mxGeometry>
        </mxCell>
        <mxCell id="4jwOPmnAcVUzZcuJE3_t-211" value="description" style="ellipse;whiteSpace=wrap;html=1;align=center;container=0;" parent="1" vertex="1">
          <mxGeometry x="1300.5953567936078" y="959.9634187048634" width="77.43324544755966" height="28.926581295136543" as="geometry" />
        </mxCell>
        <mxCell id="4jwOPmnAcVUzZcuJE3_t-212" value="" style="endArrow=none;html=1;rounded=0;" parent="1" source="4jwOPmnAcVUzZcuJE3_t-198" target="4jwOPmnAcVUzZcuJE3_t-211" edge="1">
          <mxGeometry relative="1" as="geometry">
            <mxPoint x="1447.11902961049" y="926.1112849548216" as="sourcePoint" />
            <mxPoint x="1401.2613510179729" y="958.536790937781" as="targetPoint" />
          </mxGeometry>
        </mxCell>
        <mxCell id="4jwOPmnAcVUzZcuJE3_t-213" value="start" style="ellipse;whiteSpace=wrap;html=1;align=center;container=0;" parent="1" vertex="1">
          <mxGeometry x="1345.3357986711035" y="931.6667624428109" width="77.43324544755966" height="28.926581295136543" as="geometry" />
        </mxCell>
        <mxCell id="4jwOPmnAcVUzZcuJE3_t-214" value="" style="endArrow=none;html=1;rounded=0;" parent="1" source="4jwOPmnAcVUzZcuJE3_t-198" target="4jwOPmnAcVUzZcuJE3_t-213" edge="1">
          <mxGeometry relative="1" as="geometry">
            <mxPoint x="1458.304140079864" y="899.3423560653928" as="sourcePoint" />
            <mxPoint x="1412.4464614873468" y="931.7678620483523" as="targetPoint" />
          </mxGeometry>
        </mxCell>
        <mxCell id="4jwOPmnAcVUzZcuJE3_t-215" value="end" style="ellipse;whiteSpace=wrap;html=1;align=center;container=0;" parent="1" vertex="1">
          <mxGeometry x="1378.0298765730836" y="898.2364928771625" width="77.43324544755966" height="28.926581295136543" as="geometry" />
        </mxCell>
        <mxCell id="4jwOPmnAcVUzZcuJE3_t-216" value="" style="endArrow=none;html=1;rounded=0;" parent="1" source="4jwOPmnAcVUzZcuJE3_t-198" target="4jwOPmnAcVUzZcuJE3_t-215" edge="1">
          <mxGeometry relative="1" as="geometry">
            <mxPoint x="1480.6743610186118" y="859.082246480956" as="sourcePoint" />
            <mxPoint x="1434.8166824260948" y="891.5077524639154" as="targetPoint" />
          </mxGeometry>
        </mxCell>
        <mxCell id="4jwOPmnAcVUzZcuJE3_t-217" value="createdAt" style="ellipse;whiteSpace=wrap;html=1;align=center;container=0;" parent="1" vertex="1">
          <mxGeometry x="1155.1889206917465" y="869.310772402853" width="77.43324544755966" height="28.926581295136543" as="geometry" />
        </mxCell>
        <mxCell id="4jwOPmnAcVUzZcuJE3_t-218" value="" style="endArrow=none;html=1;rounded=0;" parent="1" source="4jwOPmnAcVUzZcuJE3_t-198" target="4jwOPmnAcVUzZcuJE3_t-217" edge="1">
          <mxGeometry relative="1" as="geometry">
            <mxPoint x="1268.157262100507" y="836.9863660254348" as="sourcePoint" />
            <mxPoint x="1222.29958350799" y="869.4118720083942" as="targetPoint" />
          </mxGeometry>
        </mxCell>
        <mxCell id="4jwOPmnAcVUzZcuJE3_t-237" value="" style="group" parent="1" vertex="1" connectable="0">
          <mxGeometry x="1144.0038102223723" y="260.65744717586006" width="303.0257385043626" height="133.53511315779673" as="geometry" />
        </mxCell>
        <mxCell id="4jwOPmnAcVUzZcuJE3_t-221" value="&lt;b&gt;assignment&lt;/b&gt;" style="rounded=1;arcSize=10;whiteSpace=wrap;html=1;align=center;fontFamily=Helvetica;fontSize=12;fillColor=#d5e8d4;strokeColor=#82b366;" parent="4jwOPmnAcVUzZcuJE3_t-237" vertex="1">
          <mxGeometry x="117.52068136979592" y="99.83524464403818" width="89.48088375499151" height="33.699868513758545" as="geometry" />
        </mxCell>
        <mxCell id="4jwOPmnAcVUzZcuJE3_t-222" value="id(pk)" style="ellipse;whiteSpace=wrap;html=1;align=center;container=0;" parent="4jwOPmnAcVUzZcuJE3_t-237" vertex="1">
          <mxGeometry y="66.04050899746218" width="77.43324544755966" height="28.926581295136543" as="geometry" />
        </mxCell>
        <mxCell id="4jwOPmnAcVUzZcuJE3_t-223" value="" style="endArrow=none;html=1;rounded=0;" parent="4jwOPmnAcVUzZcuJE3_t-237" source="4jwOPmnAcVUzZcuJE3_t-222" target="4jwOPmnAcVUzZcuJE3_t-221" edge="1">
          <mxGeometry relative="1" as="geometry">
            <mxPoint x="51.273497114832" y="-48.18565367640824" as="sourcePoint" />
            <mxPoint x="110.55363187929204" y="80.50898587936905" as="targetPoint" />
          </mxGeometry>
        </mxCell>
        <mxCell id="4jwOPmnAcVUzZcuJE3_t-226" value="name" style="ellipse;whiteSpace=wrap;html=1;align=center;container=0;" parent="4jwOPmnAcVUzZcuJE3_t-237" vertex="1">
          <mxGeometry x="11.18511046937381" y="32.29570732568527" width="77.43324544755966" height="28.926581295136543" as="geometry" />
        </mxCell>
        <mxCell id="4jwOPmnAcVUzZcuJE3_t-227" value="" style="endArrow=none;html=1;rounded=0;" parent="4jwOPmnAcVUzZcuJE3_t-237" source="4jwOPmnAcVUzZcuJE3_t-226" target="4jwOPmnAcVUzZcuJE3_t-221" edge="1">
          <mxGeometry relative="1" as="geometry">
            <mxPoint x="84.82882852295381" y="-101.2180134275596" as="sourcePoint" />
            <mxPoint x="145.4051617699452" y="50.330137797326856" as="targetPoint" />
          </mxGeometry>
        </mxCell>
        <mxCell id="4jwOPmnAcVUzZcuJE3_t-228" value="moduleId" style="ellipse;whiteSpace=wrap;html=1;align=center;container=0;" parent="4jwOPmnAcVUzZcuJE3_t-237" vertex="1">
          <mxGeometry x="32.436820361184296" width="77.43324544755966" height="28.926581295136543" as="geometry" />
        </mxCell>
        <mxCell id="4jwOPmnAcVUzZcuJE3_t-229" value="" style="endArrow=none;html=1;rounded=0;" parent="4jwOPmnAcVUzZcuJE3_t-237" source="4jwOPmnAcVUzZcuJE3_t-228" target="4jwOPmnAcVUzZcuJE3_t-221" edge="1">
          <mxGeometry relative="1" as="geometry">
            <mxPoint x="116.66165291879209" y="-109.6092806874855" as="sourcePoint" />
            <mxPoint x="177.2379861657835" y="41.93887053740098" as="targetPoint" />
          </mxGeometry>
        </mxCell>
        <mxCell id="4jwOPmnAcVUzZcuJE3_t-230" value="start" style="ellipse;whiteSpace=wrap;html=1;align=center;container=0;" parent="4jwOPmnAcVUzZcuJE3_t-237" vertex="1">
          <mxGeometry x="96.44920757741136" y="21.657782164842192" width="77.43324544755966" height="28.926581295136543" as="geometry" />
        </mxCell>
        <mxCell id="4jwOPmnAcVUzZcuJE3_t-231" value="" style="endArrow=none;html=1;rounded=0;" parent="4jwOPmnAcVUzZcuJE3_t-237" source="4jwOPmnAcVUzZcuJE3_t-230" target="4jwOPmnAcVUzZcuJE3_t-221" edge="1">
          <mxGeometry relative="1" as="geometry">
            <mxPoint x="173.44845877180353" y="-90.321722608111" as="sourcePoint" />
            <mxPoint x="234.02479201879495" y="61.22642861677547" as="targetPoint" />
          </mxGeometry>
        </mxCell>
        <mxCell id="4jwOPmnAcVUzZcuJE3_t-232" value="end" style="ellipse;whiteSpace=wrap;html=1;align=center;container=0;" parent="4jwOPmnAcVUzZcuJE3_t-237" vertex="1">
          <mxGeometry x="147.0394622303897" y="49.33660750414253" width="77.43324544755966" height="28.926581295136543" as="geometry" />
        </mxCell>
        <mxCell id="4jwOPmnAcVUzZcuJE3_t-233" value="" style="endArrow=none;html=1;rounded=0;" parent="4jwOPmnAcVUzZcuJE3_t-237" source="4jwOPmnAcVUzZcuJE3_t-232" target="4jwOPmnAcVUzZcuJE3_t-221" edge="1">
          <mxGeometry relative="1" as="geometry">
            <mxPoint x="96.01393899232775" y="-3.2524956580635" as="sourcePoint" />
            <mxPoint x="156.59027223931915" y="148.29565556682294" as="targetPoint" />
          </mxGeometry>
        </mxCell>
        <mxCell id="4jwOPmnAcVUzZcuJE3_t-234" value="createdAt" style="ellipse;whiteSpace=wrap;html=1;align=center;container=0;" parent="4jwOPmnAcVUzZcuJE3_t-237" vertex="1">
          <mxGeometry x="225.59249305680288" y="33.41903627614389" width="77.43324544755966" height="28.926581295136543" as="geometry" />
        </mxCell>
        <mxCell id="4jwOPmnAcVUzZcuJE3_t-235" value="" style="endArrow=none;html=1;rounded=0;" parent="4jwOPmnAcVUzZcuJE3_t-237" source="4jwOPmnAcVUzZcuJE3_t-234" target="4jwOPmnAcVUzZcuJE3_t-221" edge="1">
          <mxGeometry relative="1" as="geometry">
            <mxPoint x="107.19904946170169" y="7.9807938465226815" as="sourcePoint" />
            <mxPoint x="167.7753827086931" y="159.52894507140914" as="targetPoint" />
          </mxGeometry>
        </mxCell>
        <mxCell id="4jwOPmnAcVUzZcuJE3_t-241" value="" style="edgeStyle=entityRelationEdgeStyle;fontSize=12;html=1;endArrow=ERoneToMany;rounded=0;labelBackgroundColor=default;strokeColor=default;align=center;verticalAlign=middle;fontFamily=Helvetica;fontColor=default;shape=connector;strokeWidth=2;" parent="1" source="4jwOPmnAcVUzZcuJE3_t-221" target="4jwOPmnAcVUzZcuJE3_t-252" edge="1">
          <mxGeometry width="100" height="100" relative="1" as="geometry">
            <mxPoint x="1468.3707395023005" y="472.9716196293197" as="sourcePoint" />
            <mxPoint x="1580.22184419604" y="360.6387245834579" as="targetPoint" />
          </mxGeometry>
        </mxCell>
        <mxCell id="4jwOPmnAcVUzZcuJE3_t-244" value="" style="fontSize=12;html=1;endArrow=ERoneToMany;rounded=0;labelBackgroundColor=default;strokeColor=default;align=center;verticalAlign=middle;fontFamily=Helvetica;fontColor=default;shape=connector;movable=1;resizable=1;rotatable=1;deletable=1;editable=1;locked=0;connectable=1;strokeWidth=2;" parent="1" source="4jwOPmnAcVUzZcuJE3_t-163" target="4jwOPmnAcVUzZcuJE3_t-269" edge="1">
          <mxGeometry width="100" height="100" relative="1" as="geometry">
            <mxPoint x="1504.5068111987946" y="546.0104679881391" as="sourcePoint" />
            <mxPoint x="1505.6451201414886" y="386.31802439094184" as="targetPoint" />
          </mxGeometry>
        </mxCell>
        <mxCell id="4jwOPmnAcVUzZcuJE3_t-246" value="" style="fontSize=12;html=1;endArrow=ERoneToMany;rounded=0;labelBackgroundColor=default;strokeColor=default;align=center;verticalAlign=middle;fontFamily=Helvetica;fontColor=default;shape=connector;strokeWidth=2;" parent="1" source="4jwOPmnAcVUzZcuJE3_t-161" target="4jwOPmnAcVUzZcuJE3_t-221" edge="1">
          <mxGeometry width="100" height="100" relative="1" as="geometry">
            <mxPoint x="1199.928088237326" y="506.67148814307825" as="sourcePoint" />
            <mxPoint x="1311.7791929310654" y="394.3385930972164" as="targetPoint" />
          </mxGeometry>
        </mxCell>
        <mxCell id="4jwOPmnAcVUzZcuJE3_t-247" value="" style="fontSize=12;html=1;endArrow=ERoneToMany;rounded=0;labelBackgroundColor=default;strokeColor=default;align=center;verticalAlign=middle;fontFamily=Helvetica;fontColor=default;shape=connector;strokeWidth=2;" parent="1" source="4jwOPmnAcVUzZcuJE3_t-161" target="4jwOPmnAcVUzZcuJE3_t-198" edge="1">
          <mxGeometry width="100" height="100" relative="1" as="geometry">
            <mxPoint x="1267.0387510535695" y="887.1256539199942" as="sourcePoint" />
            <mxPoint x="1155.1876463598303" y="774.7927588741325" as="targetPoint" />
          </mxGeometry>
        </mxCell>
        <mxCell id="4jwOPmnAcVUzZcuJE3_t-248" value="" style="fontSize=12;html=1;endArrow=ERoneToMany;rounded=1;labelBackgroundColor=default;strokeColor=default;align=center;verticalAlign=middle;fontFamily=Helvetica;fontColor=default;shape=connector;curved=0;strokeWidth=2;" parent="1" source="9oDq2MyCT_PDLGaKUW5d-44" target="4jwOPmnAcVUzZcuJE3_t-28" edge="1">
          <mxGeometry width="100" height="100" relative="1" as="geometry">
            <mxPoint x="662.4203224959583" y="419.43376185046196" as="sourcePoint" />
            <mxPoint x="774.2714271896978" y="307.1008668046002" as="targetPoint" />
          </mxGeometry>
        </mxCell>
        <mxCell id="4jwOPmnAcVUzZcuJE3_t-254" value="id(pk)" style="ellipse;whiteSpace=wrap;html=1;align=center;container=0;" parent="1" vertex="1">
          <mxGeometry x="1595.606303279175" y="303.196483452004" width="77.43324544755966" height="28.926581295136543" as="geometry" />
        </mxCell>
        <mxCell id="4jwOPmnAcVUzZcuJE3_t-258" value="" style="endArrow=none;html=1;rounded=0;" parent="1" source="4jwOPmnAcVUzZcuJE3_t-259" target="4jwOPmnAcVUzZcuJE3_t-252" edge="1">
          <mxGeometry relative="1" as="geometry">
            <mxPoint x="1782.812859684074" y="221.02824102238276" as="sourcePoint" />
            <mxPoint x="1805.61" y="330.47" as="targetPoint" />
          </mxGeometry>
        </mxCell>
        <mxCell id="4jwOPmnAcVUzZcuJE3_t-259" value="studentID" style="ellipse;whiteSpace=wrap;html=1;align=center;container=0;" parent="1" vertex="1">
          <mxGeometry x="1635.606303279175" y="274.26648345200397" width="77.43324544755966" height="28.926581295136543" as="geometry" />
        </mxCell>
        <mxCell id="4jwOPmnAcVUzZcuJE3_t-260" value="" style="endArrow=none;html=1;rounded=0;" parent="1" source="4jwOPmnAcVUzZcuJE3_t-261" target="4jwOPmnAcVUzZcuJE3_t-252" edge="1">
          <mxGeometry relative="1" as="geometry">
            <mxPoint x="1695.812859684074" y="268.30824102238273" as="sourcePoint" />
            <mxPoint x="1718.61" y="377.75" as="targetPoint" />
          </mxGeometry>
        </mxCell>
        <mxCell id="4jwOPmnAcVUzZcuJE3_t-261" value="assignmentId" style="ellipse;whiteSpace=wrap;html=1;align=center;container=0;" parent="1" vertex="1">
          <mxGeometry x="1665.61" y="240.51999999999998" width="90" height="28.93" as="geometry" />
        </mxCell>
        <mxCell id="4jwOPmnAcVUzZcuJE3_t-262" value="" style="endArrow=none;html=1;rounded=0;entryX=0.638;entryY=0.052;entryDx=0;entryDy=0;entryPerimeter=0;" parent="1" source="4jwOPmnAcVUzZcuJE3_t-263" target="4jwOPmnAcVUzZcuJE3_t-252" edge="1">
          <mxGeometry relative="1" as="geometry">
            <mxPoint x="1815.812859684074" y="222.67824102238274" as="sourcePoint" />
            <mxPoint x="1838.61" y="332.12" as="targetPoint" />
          </mxGeometry>
        </mxCell>
        <mxCell id="4jwOPmnAcVUzZcuJE3_t-263" value="sub_assignment" style="ellipse;whiteSpace=wrap;html=1;align=center;container=0;" parent="1" vertex="1">
          <mxGeometry x="1735.61" y="269.45" width="120" height="28.93" as="geometry" />
        </mxCell>
        <mxCell id="4jwOPmnAcVUzZcuJE3_t-265" value="" style="endArrow=none;html=1;rounded=0;" parent="1" source="4jwOPmnAcVUzZcuJE3_t-266" target="4jwOPmnAcVUzZcuJE3_t-252" edge="1">
          <mxGeometry relative="1" as="geometry">
            <mxPoint x="1922.812859684074" y="253.2182410223827" as="sourcePoint" />
            <mxPoint x="1945.61" y="362.65999999999997" as="targetPoint" />
          </mxGeometry>
        </mxCell>
        <mxCell id="4jwOPmnAcVUzZcuJE3_t-266" value="totalMark" style="ellipse;whiteSpace=wrap;html=1;align=center;container=0;" parent="1" vertex="1">
          <mxGeometry x="1795.606303279175" y="303.196483452004" width="77.43324544755966" height="28.926581295136543" as="geometry" />
        </mxCell>
        <mxCell id="4jwOPmnAcVUzZcuJE3_t-267" value="" style="endArrow=none;html=1;rounded=0;" parent="1" source="4jwOPmnAcVUzZcuJE3_t-268" target="4jwOPmnAcVUzZcuJE3_t-252" edge="1">
          <mxGeometry relative="1" as="geometry">
            <mxPoint x="1922.812859684074" y="295.17824102238274" as="sourcePoint" />
            <mxPoint x="1945.61" y="404.62" as="targetPoint" />
          </mxGeometry>
        </mxCell>
        <mxCell id="4jwOPmnAcVUzZcuJE3_t-268" value="date" style="ellipse;whiteSpace=wrap;html=1;align=center;container=0;" parent="1" vertex="1">
          <mxGeometry x="1842.606303279175" y="333.726483452004" width="77.43324544755966" height="28.926581295136543" as="geometry" />
        </mxCell>
        <mxCell id="4jwOPmnAcVUzZcuJE3_t-269" value="&lt;b&gt;quizSubmit&lt;/b&gt;" style="rounded=1;arcSize=10;whiteSpace=wrap;html=1;align=center;fontFamily=Helvetica;fontSize=12;fillColor=#d5e8d4;strokeColor=#82b366;" parent="1" vertex="1">
          <mxGeometry x="1451.7199999999998" y="212.32" width="100" height="37.84" as="geometry" />
        </mxCell>
        <mxCell id="4jwOPmnAcVUzZcuJE3_t-239" value="&lt;b&gt;submission&lt;br&gt;&lt;/b&gt;" style="shape=rhombus;perimeter=rhombusPerimeter;whiteSpace=wrap;html=1;align=center;container=0;fillColor=#ffe6cc;strokeColor=#d79b00;" parent="1" vertex="1">
          <mxGeometry x="1455.474307131112" y="345.5187169102849" width="92.48967847125309" height="63.636585043480714" as="geometry" />
        </mxCell>
        <mxCell id="4jwOPmnAcVUzZcuJE3_t-161" value="&lt;b&gt;module&lt;br&gt;has&lt;/b&gt;" style="rhombus;whiteSpace=wrap;html=1;rounded=1;arcSize=10;fillColor=#ffe6cc;strokeColor=#d79b00;" parent="1" vertex="1">
          <mxGeometry x="1261.5192768285942" y="540.4896014744204" width="89.48088375499151" height="89.86631603668945" as="geometry" />
        </mxCell>
        <mxCell id="4jwOPmnAcVUzZcuJE3_t-271" value="" style="endArrow=none;html=1;rounded=0;" parent="1" source="4jwOPmnAcVUzZcuJE3_t-272" target="4jwOPmnAcVUzZcuJE3_t-269" edge="1">
          <mxGeometry relative="1" as="geometry">
            <mxPoint x="1445.452859684074" y="118.13824102238274" as="sourcePoint" />
            <mxPoint x="1468.2499999999998" y="227.58000000000004" as="targetPoint" />
          </mxGeometry>
        </mxCell>
        <mxCell id="4jwOPmnAcVUzZcuJE3_t-272" value="id(pk)" style="ellipse;whiteSpace=wrap;html=1;align=center;container=0;" parent="1" vertex="1">
          <mxGeometry x="1365.246303279175" y="173.026483452004" width="77.43324544755966" height="28.926581295136543" as="geometry" />
        </mxCell>
        <mxCell id="4jwOPmnAcVUzZcuJE3_t-273" value="" style="endArrow=none;html=1;rounded=0;" parent="1" source="4jwOPmnAcVUzZcuJE3_t-274" target="4jwOPmnAcVUzZcuJE3_t-269" edge="1">
          <mxGeometry relative="1" as="geometry">
            <mxPoint x="1465.8128596840738" y="88.13824102238274" as="sourcePoint" />
            <mxPoint x="1491.1843701668104" y="227.31999999999994" as="targetPoint" />
          </mxGeometry>
        </mxCell>
        <mxCell id="4jwOPmnAcVUzZcuJE3_t-274" value="studentId" style="ellipse;whiteSpace=wrap;html=1;align=center;container=0;" parent="1" vertex="1">
          <mxGeometry x="1385.6063032791749" y="143.026483452004" width="77.43324544755966" height="28.926581295136543" as="geometry" />
        </mxCell>
        <mxCell id="4jwOPmnAcVUzZcuJE3_t-275" value="" style="endArrow=none;html=1;rounded=0;" parent="1" source="4jwOPmnAcVUzZcuJE3_t-276" target="4jwOPmnAcVUzZcuJE3_t-269" edge="1">
          <mxGeometry relative="1" as="geometry">
            <mxPoint x="1495.8128596840738" y="58.85824102238274" as="sourcePoint" />
            <mxPoint x="1509.9699999999998" y="153.47" as="targetPoint" />
          </mxGeometry>
        </mxCell>
        <mxCell id="4jwOPmnAcVUzZcuJE3_t-276" value="quizId" style="ellipse;whiteSpace=wrap;html=1;align=center;container=0;" parent="1" vertex="1">
          <mxGeometry x="1415.6063032791749" y="113.74648345200399" width="77.43324544755966" height="28.926581295136543" as="geometry" />
        </mxCell>
        <mxCell id="4jwOPmnAcVUzZcuJE3_t-277" value="" style="endArrow=none;html=1;rounded=0;" parent="1" source="4jwOPmnAcVUzZcuJE3_t-278" target="4jwOPmnAcVUzZcuJE3_t-269" edge="1">
          <mxGeometry relative="1" as="geometry">
            <mxPoint x="1555.8128596840738" y="87.78824102238275" as="sourcePoint" />
            <mxPoint x="1569.9699999999998" y="182.4" as="targetPoint" />
          </mxGeometry>
        </mxCell>
        <mxCell id="4jwOPmnAcVUzZcuJE3_t-278" value="responses" style="ellipse;whiteSpace=wrap;html=1;align=center;container=0;" parent="1" vertex="1">
          <mxGeometry x="1473.286303279175" y="136.746483452004" width="77.43324544755966" height="28.926581295136543" as="geometry" />
        </mxCell>
        <mxCell id="4jwOPmnAcVUzZcuJE3_t-279" value="" style="endArrow=none;html=1;rounded=0;" parent="1" source="4jwOPmnAcVUzZcuJE3_t-280" target="4jwOPmnAcVUzZcuJE3_t-269" edge="1">
          <mxGeometry relative="1" as="geometry">
            <mxPoint x="1605.8128596840738" y="107.33824102238276" as="sourcePoint" />
            <mxPoint x="1619.9699999999998" y="201.95" as="targetPoint" />
          </mxGeometry>
        </mxCell>
        <mxCell id="4jwOPmnAcVUzZcuJE3_t-280" value="totalMark" style="ellipse;whiteSpace=wrap;html=1;align=center;container=0;" parent="1" vertex="1">
          <mxGeometry x="1535.6063032791749" y="156.956483452004" width="77.43324544755966" height="28.926581295136543" as="geometry" />
        </mxCell>
        <mxCell id="4jwOPmnAcVUzZcuJE3_t-281" value="" style="endArrow=none;html=1;rounded=0;" parent="1" source="4jwOPmnAcVUzZcuJE3_t-282" target="4jwOPmnAcVUzZcuJE3_t-269" edge="1">
          <mxGeometry relative="1" as="geometry">
            <mxPoint x="1495.452859684074" y="168.13824102238274" as="sourcePoint" />
            <mxPoint x="1509.61" y="262.75" as="targetPoint" />
          </mxGeometry>
        </mxCell>
        <mxCell id="4jwOPmnAcVUzZcuJE3_t-282" value="date" style="ellipse;whiteSpace=wrap;html=1;align=center;container=0;" parent="1" vertex="1">
          <mxGeometry x="1568.176303279175" y="185.88648345200397" width="77.43324544755966" height="28.926581295136543" as="geometry" />
        </mxCell>
        <mxCell id="4jwOPmnAcVUzZcuJE3_t-160" value="" style="group" parent="1" vertex="1" connectable="0">
          <mxGeometry x="1008.8249387743425" y="451.4712609990274" width="205.54655004054703" height="155.37859574939455" as="geometry" />
        </mxCell>
        <mxCell id="4jwOPmnAcVUzZcuJE3_t-134" value="&lt;b&gt;modules&lt;/b&gt;" style="rounded=1;arcSize=10;whiteSpace=wrap;html=1;align=center;container=0;fillColor=#d5e8d4;strokeColor=#82b366;" parent="4jwOPmnAcVUzZcuJE3_t-160" vertex="1">
          <mxGeometry x="77.4332454475597" y="112.52440123808113" width="105.59078924667229" height="42.8541945113134" as="geometry" />
        </mxCell>
        <mxCell id="4jwOPmnAcVUzZcuJE3_t-136" value="id(PK)" style="ellipse;whiteSpace=wrap;html=1;align=center;container=0;" parent="4jwOPmnAcVUzZcuJE3_t-160" vertex="1">
          <mxGeometry y="59.99587231583874" width="77.43324544755966" height="28.926581295136543" as="geometry" />
        </mxCell>
        <mxCell id="4jwOPmnAcVUzZcuJE3_t-137" value="" style="endArrow=none;html=1;rounded=0;" parent="4jwOPmnAcVUzZcuJE3_t-160" source="4jwOPmnAcVUzZcuJE3_t-136" target="4jwOPmnAcVUzZcuJE3_t-134" edge="1">
          <mxGeometry relative="1" as="geometry">
            <mxPoint x="150.29089002776354" y="53.56774313914174" as="sourcePoint" />
            <mxPoint x="319.2361528224392" y="53.56774313914174" as="targetPoint" />
          </mxGeometry>
        </mxCell>
        <mxCell id="4jwOPmnAcVUzZcuJE3_t-138" value="name" style="ellipse;whiteSpace=wrap;html=1;align=center;container=0;" parent="4jwOPmnAcVUzZcuJE3_t-160" vertex="1">
          <mxGeometry x="34.137502163449135" y="26.78387156957087" width="77.43324544755966" height="28.926581295136543" as="geometry" />
        </mxCell>
        <mxCell id="4jwOPmnAcVUzZcuJE3_t-139" value="" style="endArrow=none;html=1;rounded=0;" parent="4jwOPmnAcVUzZcuJE3_t-160" source="4jwOPmnAcVUzZcuJE3_t-138" target="4jwOPmnAcVUzZcuJE3_t-134" edge="1">
          <mxGeometry relative="1" as="geometry">
            <mxPoint x="34.141021856424125" y="53.56774313914174" as="sourcePoint" />
            <mxPoint x="171.40904787709803" y="53.56774313914174" as="targetPoint" />
          </mxGeometry>
        </mxCell>
        <mxCell id="4jwOPmnAcVUzZcuJE3_t-140" value="courseId" style="ellipse;whiteSpace=wrap;html=1;align=center;container=0;" parent="4jwOPmnAcVUzZcuJE3_t-160" vertex="1">
          <mxGeometry x="77.42972575458482" width="77.43324544755966" height="28.926581295136543" as="geometry" />
        </mxCell>
        <mxCell id="4jwOPmnAcVUzZcuJE3_t-141" value="" style="endArrow=none;html=1;rounded=0;" parent="4jwOPmnAcVUzZcuJE3_t-160" source="4jwOPmnAcVUzZcuJE3_t-140" target="4jwOPmnAcVUzZcuJE3_t-134" edge="1">
          <mxGeometry relative="1" as="geometry">
            <mxPoint x="181.96812680176527" y="53.56774313914174" as="sourcePoint" />
            <mxPoint x="350.9133895964409" y="53.56774313914174" as="targetPoint" />
          </mxGeometry>
        </mxCell>
        <mxCell id="4jwOPmnAcVUzZcuJE3_t-142" value="details" style="ellipse;whiteSpace=wrap;html=1;align=center;container=0;" parent="4jwOPmnAcVUzZcuJE3_t-160" vertex="1">
          <mxGeometry x="128.11330459298748" y="50.35367855079324" width="77.43324544755966" height="28.926581295136543" as="geometry" />
        </mxCell>
        <mxCell id="4jwOPmnAcVUzZcuJE3_t-143" value="" style="endArrow=none;html=1;rounded=0;" parent="4jwOPmnAcVUzZcuJE3_t-160" source="4jwOPmnAcVUzZcuJE3_t-142" target="4jwOPmnAcVUzZcuJE3_t-134" edge="1">
          <mxGeometry relative="1" as="geometry">
            <mxPoint x="192.5272057264325" y="85.70838902262679" as="sourcePoint" />
            <mxPoint x="361.4724685211081" y="85.70838902262679" as="targetPoint" />
          </mxGeometry>
        </mxCell>
        <mxCell id="4jwOPmnAcVUzZcuJE3_t-283" value="" style="endArrow=none;html=1;rounded=0;labelBackgroundColor=default;strokeColor=default;align=center;verticalAlign=middle;fontFamily=Helvetica;fontSize=12;fontColor=default;shape=connector;edgeStyle=entityRelationEdgeStyle;" parent="1" edge="1">
          <mxGeometry relative="1" as="geometry">
            <mxPoint x="333.9842298312901" y="848.9709954527139" as="sourcePoint" />
            <mxPoint x="690" y="848.75" as="targetPoint" />
          </mxGeometry>
        </mxCell>
        <mxCell id="4jwOPmnAcVUzZcuJE3_t-30" value="course&lt;br&gt;offer" style="rhombus;whiteSpace=wrap;html=1;rounded=1;arcSize=10;fontStyle=1;container=0;fillColor=#ffe6cc;strokeColor=#d79b00;" parent="1" vertex="1">
          <mxGeometry x="470.17868343868577" y="805.0357004677302" width="84.4726313973378" height="85.7083890226268" as="geometry" />
        </mxCell>
        <mxCell id="4jwOPmnAcVUzZcuJE3_t-284" value="" style="fontSize=12;html=1;endArrow=ERoneToMany;rounded=0;labelBackgroundColor=default;strokeColor=default;align=center;verticalAlign=middle;fontFamily=Helvetica;fontColor=default;shape=connector;" parent="1" target="4jwOPmnAcVUzZcuJE3_t-28" edge="1">
          <mxGeometry width="100" height="100" relative="1" as="geometry">
            <mxPoint x="690" y="848.75" as="sourcePoint" />
            <mxPoint x="700" y="623.75" as="targetPoint" />
          </mxGeometry>
        </mxCell>
        <mxCell id="4jwOPmnAcVUzZcuJE3_t-285" value="" style="endArrow=none;html=1;rounded=0;labelBackgroundColor=default;strokeColor=default;align=center;verticalAlign=middle;fontFamily=Helvetica;fontSize=12;fontColor=default;shape=connector;" parent="1" source="9oDq2MyCT_PDLGaKUW5d-3" target="4jwOPmnAcVUzZcuJE3_t-286" edge="1">
          <mxGeometry relative="1" as="geometry">
            <mxPoint x="300" y="353.75" as="sourcePoint" />
            <mxPoint x="456" y="473.75" as="targetPoint" />
            <Array as="points">
              <mxPoint x="340" y="265.75" />
            </Array>
          </mxGeometry>
        </mxCell>
        <mxCell id="4jwOPmnAcVUzZcuJE3_t-286" value="&lt;b&gt;course&lt;br&gt;completed&lt;/b&gt;" style="shape=rhombus;perimeter=rhombusPerimeter;whiteSpace=wrap;html=1;align=center;fontFamily=Helvetica;fontSize=12;fillColor=#ffe6cc;strokeColor=#d79b00;" parent="1" vertex="1">
          <mxGeometry x="279.55" y="372.68" width="120" height="60" as="geometry" />
        </mxCell>
        <mxCell id="4jwOPmnAcVUzZcuJE3_t-288" value="&lt;b&gt;course_review&lt;/b&gt;" style="rounded=1;arcSize=10;whiteSpace=wrap;html=1;align=center;fontFamily=Helvetica;fontSize=12;fillColor=#d5e8d4;strokeColor=#82b366;" parent="1" vertex="1">
          <mxGeometry x="289.55" y="523.07" width="100" height="28.61" as="geometry" />
        </mxCell>
        <mxCell id="4jwOPmnAcVUzZcuJE3_t-289" value="" style="fontSize=12;html=1;endArrow=ERoneToMany;rounded=0;labelBackgroundColor=default;strokeColor=default;align=center;verticalAlign=middle;fontFamily=Helvetica;fontColor=default;shape=connector;" parent="1" source="4jwOPmnAcVUzZcuJE3_t-286" target="4jwOPmnAcVUzZcuJE3_t-288" edge="1">
          <mxGeometry width="100" height="100" relative="1" as="geometry">
            <mxPoint x="110" y="563.75" as="sourcePoint" />
            <mxPoint x="210" y="463.75" as="targetPoint" />
          </mxGeometry>
        </mxCell>
        <mxCell id="4jwOPmnAcVUzZcuJE3_t-290" value="id(pk)" style="ellipse;whiteSpace=wrap;html=1;align=center;container=0;" parent="1" vertex="1">
          <mxGeometry x="236.72048802673288" y="570.9598850023928" width="77.43324544755966" height="28.926581295136543" as="geometry" />
        </mxCell>
        <mxCell id="4jwOPmnAcVUzZcuJE3_t-291" value="" style="endArrow=none;html=1;rounded=0;" parent="1" source="4jwOPmnAcVUzZcuJE3_t-290" target="4jwOPmnAcVUzZcuJE3_t-288" edge="1">
          <mxGeometry width="50" height="50" relative="1" as="geometry">
            <mxPoint x="279.36445950249185" y="706.4150483389338" as="sourcePoint" />
            <mxPoint x="392.03" y="563.75" as="targetPoint" />
          </mxGeometry>
        </mxCell>
        <mxCell id="4jwOPmnAcVUzZcuJE3_t-292" value="studentId" style="ellipse;whiteSpace=wrap;html=1;align=center;container=0;" parent="1" vertex="1">
          <mxGeometry x="276.5504880267329" y="598.3498850023927" width="77.43324544755966" height="28.926581295136543" as="geometry" />
        </mxCell>
        <mxCell id="4jwOPmnAcVUzZcuJE3_t-293" value="" style="endArrow=none;html=1;rounded=0;" parent="1" source="4jwOPmnAcVUzZcuJE3_t-292" target="4jwOPmnAcVUzZcuJE3_t-288" edge="1">
          <mxGeometry width="50" height="50" relative="1" as="geometry">
            <mxPoint x="289.36445950249185" y="716.4150483389338" as="sourcePoint" />
            <mxPoint x="330" y="561.75" as="targetPoint" />
          </mxGeometry>
        </mxCell>
        <mxCell id="4jwOPmnAcVUzZcuJE3_t-294" value="courseId" style="ellipse;whiteSpace=wrap;html=1;align=center;container=0;" parent="1" vertex="1">
          <mxGeometry x="330.0404880267329" y="627.2798850023928" width="77.43324544755966" height="28.926581295136543" as="geometry" />
        </mxCell>
        <mxCell id="4jwOPmnAcVUzZcuJE3_t-295" value="" style="endArrow=none;html=1;rounded=0;" parent="1" source="4jwOPmnAcVUzZcuJE3_t-294" target="4jwOPmnAcVUzZcuJE3_t-288" edge="1">
          <mxGeometry width="50" height="50" relative="1" as="geometry">
            <mxPoint x="299.36445950249185" y="726.4150483389338" as="sourcePoint" />
            <mxPoint x="340" y="571.75" as="targetPoint" />
          </mxGeometry>
        </mxCell>
        <mxCell id="4jwOPmnAcVUzZcuJE3_t-296" value="review" style="ellipse;whiteSpace=wrap;html=1;align=center;container=0;" parent="1" vertex="1">
          <mxGeometry x="368.42048802673287" y="586.8498850023927" width="77.43324544755966" height="28.926581295136543" as="geometry" />
        </mxCell>
        <mxCell id="4jwOPmnAcVUzZcuJE3_t-297" value="" style="endArrow=none;html=1;rounded=0;" parent="1" source="4jwOPmnAcVUzZcuJE3_t-296" target="4jwOPmnAcVUzZcuJE3_t-288" edge="1">
          <mxGeometry width="50" height="50" relative="1" as="geometry">
            <mxPoint x="309.36445950249185" y="736.4150483389338" as="sourcePoint" />
            <mxPoint x="350" y="581.75" as="targetPoint" />
          </mxGeometry>
        </mxCell>
        <mxCell id="4jwOPmnAcVUzZcuJE3_t-298" value="date" style="ellipse;whiteSpace=wrap;html=1;align=center;container=0;" parent="1" vertex="1">
          <mxGeometry x="399.55048802673286" y="549.7498850023927" width="77.43324544755966" height="28.926581295136543" as="geometry" />
        </mxCell>
        <mxCell id="4jwOPmnAcVUzZcuJE3_t-299" value="" style="endArrow=none;html=1;rounded=0;" parent="1" source="4jwOPmnAcVUzZcuJE3_t-298" target="4jwOPmnAcVUzZcuJE3_t-288" edge="1">
          <mxGeometry width="50" height="50" relative="1" as="geometry">
            <mxPoint x="319.36445950249185" y="746.4150483389338" as="sourcePoint" />
            <mxPoint x="360" y="591.75" as="targetPoint" />
          </mxGeometry>
        </mxCell>
        <mxCell id="4jwOPmnAcVUzZcuJE3_t-300" value="&lt;b&gt;instructor_review&lt;/b&gt;" style="rounded=1;arcSize=10;whiteSpace=wrap;html=1;align=center;fontFamily=Helvetica;fontSize=12;fillColor=#d5e8d4;strokeColor=#82b366;" parent="1" vertex="1">
          <mxGeometry x="64.06" y="388.38" width="115.96" height="28.61" as="geometry" />
        </mxCell>
        <mxCell id="4jwOPmnAcVUzZcuJE3_t-301" value="id(pk)" style="ellipse;whiteSpace=wrap;html=1;align=center;container=0;" parent="1" vertex="1">
          <mxGeometry x="0.0004880267328886134" y="357.33988500239275" width="77.43324544755966" height="28.926581295136543" as="geometry" />
        </mxCell>
        <mxCell id="4jwOPmnAcVUzZcuJE3_t-302" value="" style="endArrow=none;html=1;rounded=0;" parent="1" source="4jwOPmnAcVUzZcuJE3_t-301" target="4jwOPmnAcVUzZcuJE3_t-300" edge="1">
          <mxGeometry width="50" height="50" relative="1" as="geometry">
            <mxPoint x="53.85445950249186" y="575.1550483389339" as="sourcePoint" />
            <mxPoint x="166.51999999999998" y="432.49" as="targetPoint" />
          </mxGeometry>
        </mxCell>
        <mxCell id="4jwOPmnAcVUzZcuJE3_t-303" value="studentId" style="ellipse;whiteSpace=wrap;html=1;align=center;container=0;" parent="1" vertex="1">
          <mxGeometry x="10.000488026732931" y="318.5098850023927" width="77.43324544755966" height="28.926581295136543" as="geometry" />
        </mxCell>
        <mxCell id="4jwOPmnAcVUzZcuJE3_t-304" value="" style="endArrow=none;html=1;rounded=0;" parent="1" source="4jwOPmnAcVUzZcuJE3_t-303" target="4jwOPmnAcVUzZcuJE3_t-300" edge="1">
          <mxGeometry width="50" height="50" relative="1" as="geometry">
            <mxPoint x="63.85445950249186" y="585.1550483389339" as="sourcePoint" />
            <mxPoint x="104.49000000000001" y="430.49" as="targetPoint" />
          </mxGeometry>
        </mxCell>
        <mxCell id="4jwOPmnAcVUzZcuJE3_t-305" value="instructorId" style="ellipse;whiteSpace=wrap;html=1;align=center;container=0;" parent="1" vertex="1">
          <mxGeometry x="185.15048802673286" y="299.48988500239284" width="77.43324544755966" height="28.926581295136543" as="geometry" />
        </mxCell>
        <mxCell id="4jwOPmnAcVUzZcuJE3_t-306" value="" style="endArrow=none;html=1;rounded=0;" parent="1" source="4jwOPmnAcVUzZcuJE3_t-305" target="4jwOPmnAcVUzZcuJE3_t-300" edge="1">
          <mxGeometry width="50" height="50" relative="1" as="geometry">
            <mxPoint x="73.85445950249186" y="595.1550483389339" as="sourcePoint" />
            <mxPoint x="114.49000000000001" y="440.49" as="targetPoint" />
          </mxGeometry>
        </mxCell>
        <mxCell id="4jwOPmnAcVUzZcuJE3_t-307" value="review" style="ellipse;whiteSpace=wrap;html=1;align=center;container=0;" parent="1" vertex="1">
          <mxGeometry x="108.72048802673288" y="321.5098850023927" width="77.43324544755966" height="28.926581295136543" as="geometry" />
        </mxCell>
        <mxCell id="4jwOPmnAcVUzZcuJE3_t-308" value="" style="endArrow=none;html=1;rounded=0;" parent="1" source="4jwOPmnAcVUzZcuJE3_t-307" target="4jwOPmnAcVUzZcuJE3_t-300" edge="1">
          <mxGeometry width="50" height="50" relative="1" as="geometry">
            <mxPoint x="83.85445950249186" y="605.1550483389339" as="sourcePoint" />
            <mxPoint x="124.49000000000001" y="450.49" as="targetPoint" />
          </mxGeometry>
        </mxCell>
        <mxCell id="4jwOPmnAcVUzZcuJE3_t-309" value="date" style="ellipse;whiteSpace=wrap;html=1;align=center;container=0;" parent="1" vertex="1">
          <mxGeometry x="60.00048802673287" y="289.5798850023927" width="77.43324544755966" height="28.926581295136543" as="geometry" />
        </mxCell>
        <mxCell id="4jwOPmnAcVUzZcuJE3_t-310" value="" style="endArrow=none;html=1;rounded=0;" parent="1" source="4jwOPmnAcVUzZcuJE3_t-309" target="4jwOPmnAcVUzZcuJE3_t-300" edge="1">
          <mxGeometry width="50" height="50" relative="1" as="geometry">
            <mxPoint x="93.85445950249186" y="615.1550483389339" as="sourcePoint" />
            <mxPoint x="134.49" y="460.49" as="targetPoint" />
          </mxGeometry>
        </mxCell>
        <mxCell id="4jwOPmnAcVUzZcuJE3_t-311" value="" style="fontSize=12;html=1;endArrow=ERoneToMany;rounded=0;labelBackgroundColor=default;strokeColor=default;align=center;verticalAlign=middle;fontFamily=Helvetica;fontColor=default;shape=connector;" parent="1" source="4jwOPmnAcVUzZcuJE3_t-286" target="4jwOPmnAcVUzZcuJE3_t-300" edge="1">
          <mxGeometry width="100" height="100" relative="1" as="geometry">
            <mxPoint x="120" y="573.75" as="sourcePoint" />
            <mxPoint x="220" y="473.75" as="targetPoint" />
          </mxGeometry>
        </mxCell>
        <mxCell id="4jwOPmnAcVUzZcuJE3_t-313" value="phone" style="ellipse;shape=doubleEllipse;margin=3;whiteSpace=wrap;html=1;align=center;fontFamily=Helvetica;fontSize=12;fontColor=default;" parent="1" vertex="1">
          <mxGeometry x="287.81" y="892.6" width="64.73" height="22.6" as="geometry" />
        </mxCell>
        <mxCell id="nGBM7KT-dLzEI7thtNYB-1" value="active" style="ellipse;whiteSpace=wrap;html=1;align=center;container=0;" vertex="1" parent="1">
          <mxGeometry x="306.00017051461333" y="128.03368228213265" width="77.43324544755966" height="28.926581295136543" as="geometry" />
        </mxCell>
        <mxCell id="nGBM7KT-dLzEI7thtNYB-2" value="" style="endArrow=none;html=1;rounded=0;" edge="1" parent="1" source="nGBM7KT-dLzEI7thtNYB-1" target="9oDq2MyCT_PDLGaKUW5d-3">
          <mxGeometry relative="1" as="geometry">
            <mxPoint x="368.42" y="182.13" as="sourcePoint" />
            <mxPoint x="453.42" y="235.13" as="targetPoint" />
          </mxGeometry>
        </mxCell>
        <mxCell id="nGBM7KT-dLzEI7thtNYB-3" value="active" style="ellipse;whiteSpace=wrap;html=1;align=center;container=0;" vertex="1" parent="1">
          <mxGeometry x="306.00017051461333" y="776.1136822821326" width="77.43324544755966" height="28.926581295136543" as="geometry" />
        </mxCell>
        <mxCell id="nGBM7KT-dLzEI7thtNYB-4" value="" style="endArrow=none;html=1;rounded=0;" edge="1" parent="1" source="nGBM7KT-dLzEI7thtNYB-3" target="9oDq2MyCT_PDLGaKUW5d-47">
          <mxGeometry relative="1" as="geometry">
            <mxPoint x="329.97" y="721.5200000000001" as="sourcePoint" />
            <mxPoint x="399.55" y="785.39" as="targetPoint" />
          </mxGeometry>
        </mxCell>
      </root>
    </mxGraphModel>
  </diagram>
</mxfile>
